<?xml version="1.0" encoding="utf-8" standalone="no"?>
<!DOCTYPE svg PUBLIC "-//W3C//DTD SVG 1.1//EN"
  "http://www.w3.org/Graphics/SVG/1.1/DTD/svg11.dtd">
<svg xmlns:xlink="http://www.w3.org/1999/xlink" width="852.586875pt" height="420.56925pt" viewBox="0 0 852.586875 420.56925" xmlns="http://www.w3.org/2000/svg" version="1.1">
 <metadata>
  <rdf:RDF xmlns:dc="http://purl.org/dc/elements/1.1/" xmlns:cc="http://creativecommons.org/ns#" xmlns:rdf="http://www.w3.org/1999/02/22-rdf-syntax-ns#">
   <cc:Work>
    <dc:type rdf:resource="http://purl.org/dc/dcmitype/StillImage"/>
    <dc:date>2025-02-14T14:40:04.750492</dc:date>
    <dc:format>image/svg+xml</dc:format>
    <dc:creator>
     <cc:Agent>
      <dc:title>Matplotlib v3.10.0, https://matplotlib.org/</dc:title>
     </cc:Agent>
    </dc:creator>
   </cc:Work>
  </rdf:RDF>
 </metadata>
 <defs>
  <style type="text/css">*{stroke-linejoin: round; stroke-linecap: butt}</style>
 </defs>
 <g id="figure_1">
  <g id="patch_1">
   <path d="M 0 420.56925 
L 852.586875 420.56925 
L 852.586875 0 
L 0 0 
z
" style="fill: #ffffff"/>
  </g>
  <g id="axes_1">
   <g id="patch_2">
    <path d="M 53.226875 379.14175 
L 845.386875 379.14175 
L 845.386875 38.14175 
L 53.226875 38.14175 
z
" style="fill: #ffffff"/>
   </g>
   <g id="matplotlib.axis_1">
    <g id="xtick_1">
     <g id="text_1">
      <!-- 0 -->
      <g style="fill: #262626" transform="translate(181.436042 395.259875) scale(0.12 -0.12)">
       <defs>
        <path id="DejaVuSans-30" d="M 2034 4250 
Q 1547 4250 1301 3770 
Q 1056 3291 1056 2328 
Q 1056 1369 1301 889 
Q 1547 409 2034 409 
Q 2525 409 2770 889 
Q 3016 1369 3016 2328 
Q 3016 3291 2770 3770 
Q 2525 4250 2034 4250 
z
M 2034 4750 
Q 2819 4750 3233 4129 
Q 3647 3509 3647 2328 
Q 3647 1150 3233 529 
Q 2819 -91 2034 -91 
Q 1250 -91 836 529 
Q 422 1150 422 2328 
Q 422 3509 836 4129 
Q 1250 4750 2034 4750 
z
" transform="scale(0.015625)"/>
       </defs>
       <use xlink:href="#DejaVuSans-30"/>
      </g>
     </g>
    </g>
    <g id="xtick_2">
     <g id="text_2">
      <!-- 1 -->
      <g style="fill: #262626" transform="translate(445.489375 395.259875) scale(0.12 -0.12)">
       <defs>
        <path id="DejaVuSans-31" d="M 794 531 
L 1825 531 
L 1825 4091 
L 703 3866 
L 703 4441 
L 1819 4666 
L 2450 4666 
L 2450 531 
L 3481 531 
L 3481 0 
L 794 0 
L 794 531 
z
" transform="scale(0.015625)"/>
       </defs>
       <use xlink:href="#DejaVuSans-31"/>
      </g>
     </g>
    </g>
    <g id="text_3">
     <!-- User Defined Function (0: No, 1: Yes) -->
     <g style="fill: #262626" transform="translate(339.164687 410.873625) scale(0.12 -0.12)">
      <defs>
       <path id="DejaVuSans-55" d="M 556 4666 
L 1191 4666 
L 1191 1831 
Q 1191 1081 1462 751 
Q 1734 422 2344 422 
Q 2950 422 3222 751 
Q 3494 1081 3494 1831 
L 3494 4666 
L 4128 4666 
L 4128 1753 
Q 4128 841 3676 375 
Q 3225 -91 2344 -91 
Q 1459 -91 1007 375 
Q 556 841 556 1753 
L 556 4666 
z
" transform="scale(0.015625)"/>
       <path id="DejaVuSans-73" d="M 2834 3397 
L 2834 2853 
Q 2591 2978 2328 3040 
Q 2066 3103 1784 3103 
Q 1356 3103 1142 2972 
Q 928 2841 928 2578 
Q 928 2378 1081 2264 
Q 1234 2150 1697 2047 
L 1894 2003 
Q 2506 1872 2764 1633 
Q 3022 1394 3022 966 
Q 3022 478 2636 193 
Q 2250 -91 1575 -91 
Q 1294 -91 989 -36 
Q 684 19 347 128 
L 347 722 
Q 666 556 975 473 
Q 1284 391 1588 391 
Q 1994 391 2212 530 
Q 2431 669 2431 922 
Q 2431 1156 2273 1281 
Q 2116 1406 1581 1522 
L 1381 1569 
Q 847 1681 609 1914 
Q 372 2147 372 2553 
Q 372 3047 722 3315 
Q 1072 3584 1716 3584 
Q 2034 3584 2315 3537 
Q 2597 3491 2834 3397 
z
" transform="scale(0.015625)"/>
       <path id="DejaVuSans-65" d="M 3597 1894 
L 3597 1613 
L 953 1613 
Q 991 1019 1311 708 
Q 1631 397 2203 397 
Q 2534 397 2845 478 
Q 3156 559 3463 722 
L 3463 178 
Q 3153 47 2828 -22 
Q 2503 -91 2169 -91 
Q 1331 -91 842 396 
Q 353 884 353 1716 
Q 353 2575 817 3079 
Q 1281 3584 2069 3584 
Q 2775 3584 3186 3129 
Q 3597 2675 3597 1894 
z
M 3022 2063 
Q 3016 2534 2758 2815 
Q 2500 3097 2075 3097 
Q 1594 3097 1305 2825 
Q 1016 2553 972 2059 
L 3022 2063 
z
" transform="scale(0.015625)"/>
       <path id="DejaVuSans-72" d="M 2631 2963 
Q 2534 3019 2420 3045 
Q 2306 3072 2169 3072 
Q 1681 3072 1420 2755 
Q 1159 2438 1159 1844 
L 1159 0 
L 581 0 
L 581 3500 
L 1159 3500 
L 1159 2956 
Q 1341 3275 1631 3429 
Q 1922 3584 2338 3584 
Q 2397 3584 2469 3576 
Q 2541 3569 2628 3553 
L 2631 2963 
z
" transform="scale(0.015625)"/>
       <path id="DejaVuSans-20" transform="scale(0.015625)"/>
       <path id="DejaVuSans-44" d="M 1259 4147 
L 1259 519 
L 2022 519 
Q 2988 519 3436 956 
Q 3884 1394 3884 2338 
Q 3884 3275 3436 3711 
Q 2988 4147 2022 4147 
L 1259 4147 
z
M 628 4666 
L 1925 4666 
Q 3281 4666 3915 4102 
Q 4550 3538 4550 2338 
Q 4550 1131 3912 565 
Q 3275 0 1925 0 
L 628 0 
L 628 4666 
z
" transform="scale(0.015625)"/>
       <path id="DejaVuSans-66" d="M 2375 4863 
L 2375 4384 
L 1825 4384 
Q 1516 4384 1395 4259 
Q 1275 4134 1275 3809 
L 1275 3500 
L 2222 3500 
L 2222 3053 
L 1275 3053 
L 1275 0 
L 697 0 
L 697 3053 
L 147 3053 
L 147 3500 
L 697 3500 
L 697 3744 
Q 697 4328 969 4595 
Q 1241 4863 1831 4863 
L 2375 4863 
z
" transform="scale(0.015625)"/>
       <path id="DejaVuSans-69" d="M 603 3500 
L 1178 3500 
L 1178 0 
L 603 0 
L 603 3500 
z
M 603 4863 
L 1178 4863 
L 1178 4134 
L 603 4134 
L 603 4863 
z
" transform="scale(0.015625)"/>
       <path id="DejaVuSans-6e" d="M 3513 2113 
L 3513 0 
L 2938 0 
L 2938 2094 
Q 2938 2591 2744 2837 
Q 2550 3084 2163 3084 
Q 1697 3084 1428 2787 
Q 1159 2491 1159 1978 
L 1159 0 
L 581 0 
L 581 3500 
L 1159 3500 
L 1159 2956 
Q 1366 3272 1645 3428 
Q 1925 3584 2291 3584 
Q 2894 3584 3203 3211 
Q 3513 2838 3513 2113 
z
" transform="scale(0.015625)"/>
       <path id="DejaVuSans-64" d="M 2906 2969 
L 2906 4863 
L 3481 4863 
L 3481 0 
L 2906 0 
L 2906 525 
Q 2725 213 2448 61 
Q 2172 -91 1784 -91 
Q 1150 -91 751 415 
Q 353 922 353 1747 
Q 353 2572 751 3078 
Q 1150 3584 1784 3584 
Q 2172 3584 2448 3432 
Q 2725 3281 2906 2969 
z
M 947 1747 
Q 947 1113 1208 752 
Q 1469 391 1925 391 
Q 2381 391 2643 752 
Q 2906 1113 2906 1747 
Q 2906 2381 2643 2742 
Q 2381 3103 1925 3103 
Q 1469 3103 1208 2742 
Q 947 2381 947 1747 
z
" transform="scale(0.015625)"/>
       <path id="DejaVuSans-46" d="M 628 4666 
L 3309 4666 
L 3309 4134 
L 1259 4134 
L 1259 2759 
L 3109 2759 
L 3109 2228 
L 1259 2228 
L 1259 0 
L 628 0 
L 628 4666 
z
" transform="scale(0.015625)"/>
       <path id="DejaVuSans-75" d="M 544 1381 
L 544 3500 
L 1119 3500 
L 1119 1403 
Q 1119 906 1312 657 
Q 1506 409 1894 409 
Q 2359 409 2629 706 
Q 2900 1003 2900 1516 
L 2900 3500 
L 3475 3500 
L 3475 0 
L 2900 0 
L 2900 538 
Q 2691 219 2414 64 
Q 2138 -91 1772 -91 
Q 1169 -91 856 284 
Q 544 659 544 1381 
z
M 1991 3584 
L 1991 3584 
z
" transform="scale(0.015625)"/>
       <path id="DejaVuSans-63" d="M 3122 3366 
L 3122 2828 
Q 2878 2963 2633 3030 
Q 2388 3097 2138 3097 
Q 1578 3097 1268 2742 
Q 959 2388 959 1747 
Q 959 1106 1268 751 
Q 1578 397 2138 397 
Q 2388 397 2633 464 
Q 2878 531 3122 666 
L 3122 134 
Q 2881 22 2623 -34 
Q 2366 -91 2075 -91 
Q 1284 -91 818 406 
Q 353 903 353 1747 
Q 353 2603 823 3093 
Q 1294 3584 2113 3584 
Q 2378 3584 2631 3529 
Q 2884 3475 3122 3366 
z
" transform="scale(0.015625)"/>
       <path id="DejaVuSans-74" d="M 1172 4494 
L 1172 3500 
L 2356 3500 
L 2356 3053 
L 1172 3053 
L 1172 1153 
Q 1172 725 1289 603 
Q 1406 481 1766 481 
L 2356 481 
L 2356 0 
L 1766 0 
Q 1100 0 847 248 
Q 594 497 594 1153 
L 594 3053 
L 172 3053 
L 172 3500 
L 594 3500 
L 594 4494 
L 1172 4494 
z
" transform="scale(0.015625)"/>
       <path id="DejaVuSans-6f" d="M 1959 3097 
Q 1497 3097 1228 2736 
Q 959 2375 959 1747 
Q 959 1119 1226 758 
Q 1494 397 1959 397 
Q 2419 397 2687 759 
Q 2956 1122 2956 1747 
Q 2956 2369 2687 2733 
Q 2419 3097 1959 3097 
z
M 1959 3584 
Q 2709 3584 3137 3096 
Q 3566 2609 3566 1747 
Q 3566 888 3137 398 
Q 2709 -91 1959 -91 
Q 1206 -91 779 398 
Q 353 888 353 1747 
Q 353 2609 779 3096 
Q 1206 3584 1959 3584 
z
" transform="scale(0.015625)"/>
       <path id="DejaVuSans-28" d="M 1984 4856 
Q 1566 4138 1362 3434 
Q 1159 2731 1159 2009 
Q 1159 1288 1364 580 
Q 1569 -128 1984 -844 
L 1484 -844 
Q 1016 -109 783 600 
Q 550 1309 550 2009 
Q 550 2706 781 3412 
Q 1013 4119 1484 4856 
L 1984 4856 
z
" transform="scale(0.015625)"/>
       <path id="DejaVuSans-3a" d="M 750 794 
L 1409 794 
L 1409 0 
L 750 0 
L 750 794 
z
M 750 3309 
L 1409 3309 
L 1409 2516 
L 750 2516 
L 750 3309 
z
" transform="scale(0.015625)"/>
       <path id="DejaVuSans-4e" d="M 628 4666 
L 1478 4666 
L 3547 763 
L 3547 4666 
L 4159 4666 
L 4159 0 
L 3309 0 
L 1241 3903 
L 1241 0 
L 628 0 
L 628 4666 
z
" transform="scale(0.015625)"/>
       <path id="DejaVuSans-2c" d="M 750 794 
L 1409 794 
L 1409 256 
L 897 -744 
L 494 -744 
L 750 256 
L 750 794 
z
" transform="scale(0.015625)"/>
       <path id="DejaVuSans-59" d="M -13 4666 
L 666 4666 
L 1959 2747 
L 3244 4666 
L 3922 4666 
L 2272 2222 
L 2272 0 
L 1638 0 
L 1638 2222 
L -13 4666 
z
" transform="scale(0.015625)"/>
       <path id="DejaVuSans-29" d="M 513 4856 
L 1013 4856 
Q 1481 4119 1714 3412 
Q 1947 2706 1947 2009 
Q 1947 1309 1714 600 
Q 1481 -109 1013 -844 
L 513 -844 
Q 928 -128 1133 580 
Q 1338 1288 1338 2009 
Q 1338 2731 1133 3434 
Q 928 4138 513 4856 
z
" transform="scale(0.015625)"/>
      </defs>
      <use xlink:href="#DejaVuSans-55"/>
      <use xlink:href="#DejaVuSans-73" transform="translate(73.193359 0)"/>
      <use xlink:href="#DejaVuSans-65" transform="translate(125.292969 0)"/>
      <use xlink:href="#DejaVuSans-72" transform="translate(186.816406 0)"/>
      <use xlink:href="#DejaVuSans-20" transform="translate(227.929688 0)"/>
      <use xlink:href="#DejaVuSans-44" transform="translate(259.716797 0)"/>
      <use xlink:href="#DejaVuSans-65" transform="translate(336.71875 0)"/>
      <use xlink:href="#DejaVuSans-66" transform="translate(398.242188 0)"/>
      <use xlink:href="#DejaVuSans-69" transform="translate(433.447266 0)"/>
      <use xlink:href="#DejaVuSans-6e" transform="translate(461.230469 0)"/>
      <use xlink:href="#DejaVuSans-65" transform="translate(524.609375 0)"/>
      <use xlink:href="#DejaVuSans-64" transform="translate(586.132812 0)"/>
      <use xlink:href="#DejaVuSans-20" transform="translate(649.609375 0)"/>
      <use xlink:href="#DejaVuSans-46" transform="translate(681.396484 0)"/>
      <use xlink:href="#DejaVuSans-75" transform="translate(733.416016 0)"/>
      <use xlink:href="#DejaVuSans-6e" transform="translate(796.794922 0)"/>
      <use xlink:href="#DejaVuSans-63" transform="translate(860.173828 0)"/>
      <use xlink:href="#DejaVuSans-74" transform="translate(915.154297 0)"/>
      <use xlink:href="#DejaVuSans-69" transform="translate(954.363281 0)"/>
      <use xlink:href="#DejaVuSans-6f" transform="translate(982.146484 0)"/>
      <use xlink:href="#DejaVuSans-6e" transform="translate(1043.328125 0)"/>
      <use xlink:href="#DejaVuSans-20" transform="translate(1106.707031 0)"/>
      <use xlink:href="#DejaVuSans-28" transform="translate(1138.494141 0)"/>
      <use xlink:href="#DejaVuSans-30" transform="translate(1177.507812 0)"/>
      <use xlink:href="#DejaVuSans-3a" transform="translate(1241.130859 0)"/>
      <use xlink:href="#DejaVuSans-20" transform="translate(1274.822266 0)"/>
      <use xlink:href="#DejaVuSans-4e" transform="translate(1306.609375 0)"/>
      <use xlink:href="#DejaVuSans-6f" transform="translate(1381.414062 0)"/>
      <use xlink:href="#DejaVuSans-2c" transform="translate(1442.595703 0)"/>
      <use xlink:href="#DejaVuSans-20" transform="translate(1474.382812 0)"/>
      <use xlink:href="#DejaVuSans-31" transform="translate(1506.169922 0)"/>
      <use xlink:href="#DejaVuSans-3a" transform="translate(1569.792969 0)"/>
      <use xlink:href="#DejaVuSans-20" transform="translate(1603.484375 0)"/>
      <use xlink:href="#DejaVuSans-59" transform="translate(1635.271484 0)"/>
      <use xlink:href="#DejaVuSans-65" transform="translate(1683.105469 0)"/>
      <use xlink:href="#DejaVuSans-73" transform="translate(1744.628906 0)"/>
      <use xlink:href="#DejaVuSans-29" transform="translate(1796.728516 0)"/>
     </g>
    </g>
   </g>
   <g id="matplotlib.axis_2">
    <g id="ytick_1">
     <g id="line2d_1">
      <path d="M 53.226875 367.775083 
L 845.386875 367.775083 
" clip-path="url(#p4ca1df43cd)" style="fill: none; stroke: #cccccc; stroke-width: 0.8; stroke-linecap: round"/>
     </g>
     <g id="text_4">
      <!-- -0.2 -->
      <g style="fill: #262626" transform="translate(22.81375 372.334146) scale(0.12 -0.12)">
       <defs>
        <path id="DejaVuSans-2d" d="M 313 2009 
L 1997 2009 
L 1997 1497 
L 313 1497 
L 313 2009 
z
" transform="scale(0.015625)"/>
        <path id="DejaVuSans-2e" d="M 684 794 
L 1344 794 
L 1344 0 
L 684 0 
L 684 794 
z
" transform="scale(0.015625)"/>
        <path id="DejaVuSans-32" d="M 1228 531 
L 3431 531 
L 3431 0 
L 469 0 
L 469 531 
Q 828 903 1448 1529 
Q 2069 2156 2228 2338 
Q 2531 2678 2651 2914 
Q 2772 3150 2772 3378 
Q 2772 3750 2511 3984 
Q 2250 4219 1831 4219 
Q 1534 4219 1204 4116 
Q 875 4013 500 3803 
L 500 4441 
Q 881 4594 1212 4672 
Q 1544 4750 1819 4750 
Q 2544 4750 2975 4387 
Q 3406 4025 3406 3419 
Q 3406 3131 3298 2873 
Q 3191 2616 2906 2266 
Q 2828 2175 2409 1742 
Q 1991 1309 1228 531 
z
" transform="scale(0.015625)"/>
       </defs>
       <use xlink:href="#DejaVuSans-2d"/>
       <use xlink:href="#DejaVuSans-30" transform="translate(36.083984 0)"/>
       <use xlink:href="#DejaVuSans-2e" transform="translate(99.707031 0)"/>
       <use xlink:href="#DejaVuSans-32" transform="translate(131.494141 0)"/>
      </g>
     </g>
    </g>
    <g id="ytick_2">
     <g id="line2d_2">
      <path d="M 53.226875 322.308417 
L 845.386875 322.308417 
" clip-path="url(#p4ca1df43cd)" style="fill: none; stroke: #cccccc; stroke-width: 0.8; stroke-linecap: round"/>
     </g>
     <g id="text_5">
      <!-- 0.0 -->
      <g style="fill: #262626" transform="translate(27.143125 326.867479) scale(0.12 -0.12)">
       <use xlink:href="#DejaVuSans-30"/>
       <use xlink:href="#DejaVuSans-2e" transform="translate(63.623047 0)"/>
       <use xlink:href="#DejaVuSans-30" transform="translate(95.410156 0)"/>
      </g>
     </g>
    </g>
    <g id="ytick_3">
     <g id="line2d_3">
      <path d="M 53.226875 276.84175 
L 845.386875 276.84175 
" clip-path="url(#p4ca1df43cd)" style="fill: none; stroke: #cccccc; stroke-width: 0.8; stroke-linecap: round"/>
     </g>
     <g id="text_6">
      <!-- 0.2 -->
      <g style="fill: #262626" transform="translate(27.143125 281.400813) scale(0.12 -0.12)">
       <use xlink:href="#DejaVuSans-30"/>
       <use xlink:href="#DejaVuSans-2e" transform="translate(63.623047 0)"/>
       <use xlink:href="#DejaVuSans-32" transform="translate(95.410156 0)"/>
      </g>
     </g>
    </g>
    <g id="ytick_4">
     <g id="line2d_4">
      <path d="M 53.226875 231.375083 
L 845.386875 231.375083 
" clip-path="url(#p4ca1df43cd)" style="fill: none; stroke: #cccccc; stroke-width: 0.8; stroke-linecap: round"/>
     </g>
     <g id="text_7">
      <!-- 0.4 -->
      <g style="fill: #262626" transform="translate(27.143125 235.934146) scale(0.12 -0.12)">
       <defs>
        <path id="DejaVuSans-34" d="M 2419 4116 
L 825 1625 
L 2419 1625 
L 2419 4116 
z
M 2253 4666 
L 3047 4666 
L 3047 1625 
L 3713 1625 
L 3713 1100 
L 3047 1100 
L 3047 0 
L 2419 0 
L 2419 1100 
L 313 1100 
L 313 1709 
L 2253 4666 
z
" transform="scale(0.015625)"/>
       </defs>
       <use xlink:href="#DejaVuSans-30"/>
       <use xlink:href="#DejaVuSans-2e" transform="translate(63.623047 0)"/>
       <use xlink:href="#DejaVuSans-34" transform="translate(95.410156 0)"/>
      </g>
     </g>
    </g>
    <g id="ytick_5">
     <g id="line2d_5">
      <path d="M 53.226875 185.908417 
L 845.386875 185.908417 
" clip-path="url(#p4ca1df43cd)" style="fill: none; stroke: #cccccc; stroke-width: 0.8; stroke-linecap: round"/>
     </g>
     <g id="text_8">
      <!-- 0.6 -->
      <g style="fill: #262626" transform="translate(27.143125 190.467479) scale(0.12 -0.12)">
       <defs>
        <path id="DejaVuSans-36" d="M 2113 2584 
Q 1688 2584 1439 2293 
Q 1191 2003 1191 1497 
Q 1191 994 1439 701 
Q 1688 409 2113 409 
Q 2538 409 2786 701 
Q 3034 994 3034 1497 
Q 3034 2003 2786 2293 
Q 2538 2584 2113 2584 
z
M 3366 4563 
L 3366 3988 
Q 3128 4100 2886 4159 
Q 2644 4219 2406 4219 
Q 1781 4219 1451 3797 
Q 1122 3375 1075 2522 
Q 1259 2794 1537 2939 
Q 1816 3084 2150 3084 
Q 2853 3084 3261 2657 
Q 3669 2231 3669 1497 
Q 3669 778 3244 343 
Q 2819 -91 2113 -91 
Q 1303 -91 875 529 
Q 447 1150 447 2328 
Q 447 3434 972 4092 
Q 1497 4750 2381 4750 
Q 2619 4750 2861 4703 
Q 3103 4656 3366 4563 
z
" transform="scale(0.015625)"/>
       </defs>
       <use xlink:href="#DejaVuSans-30"/>
       <use xlink:href="#DejaVuSans-2e" transform="translate(63.623047 0)"/>
       <use xlink:href="#DejaVuSans-36" transform="translate(95.410156 0)"/>
      </g>
     </g>
    </g>
    <g id="ytick_6">
     <g id="line2d_6">
      <path d="M 53.226875 140.44175 
L 845.386875 140.44175 
" clip-path="url(#p4ca1df43cd)" style="fill: none; stroke: #cccccc; stroke-width: 0.8; stroke-linecap: round"/>
     </g>
     <g id="text_9">
      <!-- 0.8 -->
      <g style="fill: #262626" transform="translate(27.143125 145.000812) scale(0.12 -0.12)">
       <defs>
        <path id="DejaVuSans-38" d="M 2034 2216 
Q 1584 2216 1326 1975 
Q 1069 1734 1069 1313 
Q 1069 891 1326 650 
Q 1584 409 2034 409 
Q 2484 409 2743 651 
Q 3003 894 3003 1313 
Q 3003 1734 2745 1975 
Q 2488 2216 2034 2216 
z
M 1403 2484 
Q 997 2584 770 2862 
Q 544 3141 544 3541 
Q 544 4100 942 4425 
Q 1341 4750 2034 4750 
Q 2731 4750 3128 4425 
Q 3525 4100 3525 3541 
Q 3525 3141 3298 2862 
Q 3072 2584 2669 2484 
Q 3125 2378 3379 2068 
Q 3634 1759 3634 1313 
Q 3634 634 3220 271 
Q 2806 -91 2034 -91 
Q 1263 -91 848 271 
Q 434 634 434 1313 
Q 434 1759 690 2068 
Q 947 2378 1403 2484 
z
M 1172 3481 
Q 1172 3119 1398 2916 
Q 1625 2713 2034 2713 
Q 2441 2713 2670 2916 
Q 2900 3119 2900 3481 
Q 2900 3844 2670 4047 
Q 2441 4250 2034 4250 
Q 1625 4250 1398 4047 
Q 1172 3844 1172 3481 
z
" transform="scale(0.015625)"/>
       </defs>
       <use xlink:href="#DejaVuSans-30"/>
       <use xlink:href="#DejaVuSans-2e" transform="translate(63.623047 0)"/>
       <use xlink:href="#DejaVuSans-38" transform="translate(95.410156 0)"/>
      </g>
     </g>
    </g>
    <g id="ytick_7">
     <g id="line2d_7">
      <path d="M 53.226875 94.975083 
L 845.386875 94.975083 
" clip-path="url(#p4ca1df43cd)" style="fill: none; stroke: #cccccc; stroke-width: 0.8; stroke-linecap: round"/>
     </g>
     <g id="text_10">
      <!-- 1.0 -->
      <g style="fill: #262626" transform="translate(27.143125 99.534146) scale(0.12 -0.12)">
       <use xlink:href="#DejaVuSans-31"/>
       <use xlink:href="#DejaVuSans-2e" transform="translate(63.623047 0)"/>
       <use xlink:href="#DejaVuSans-30" transform="translate(95.410156 0)"/>
      </g>
     </g>
    </g>
    <g id="ytick_8">
     <g id="line2d_8">
      <path d="M 53.226875 49.508417 
L 845.386875 49.508417 
" clip-path="url(#p4ca1df43cd)" style="fill: none; stroke: #cccccc; stroke-width: 0.8; stroke-linecap: round"/>
     </g>
     <g id="text_11">
      <!-- 1.2 -->
      <g style="fill: #262626" transform="translate(27.143125 54.067479) scale(0.12 -0.12)">
       <use xlink:href="#DejaVuSans-31"/>
       <use xlink:href="#DejaVuSans-2e" transform="translate(63.623047 0)"/>
       <use xlink:href="#DejaVuSans-32" transform="translate(95.410156 0)"/>
      </g>
     </g>
    </g>
    <g id="text_12">
     <!-- Similarity Score -->
     <g style="fill: #262626" transform="translate(16.318125 255.71925) rotate(-90) scale(0.12 -0.12)">
      <defs>
       <path id="DejaVuSans-53" d="M 3425 4513 
L 3425 3897 
Q 3066 4069 2747 4153 
Q 2428 4238 2131 4238 
Q 1616 4238 1336 4038 
Q 1056 3838 1056 3469 
Q 1056 3159 1242 3001 
Q 1428 2844 1947 2747 
L 2328 2669 
Q 3034 2534 3370 2195 
Q 3706 1856 3706 1288 
Q 3706 609 3251 259 
Q 2797 -91 1919 -91 
Q 1588 -91 1214 -16 
Q 841 59 441 206 
L 441 856 
Q 825 641 1194 531 
Q 1563 422 1919 422 
Q 2459 422 2753 634 
Q 3047 847 3047 1241 
Q 3047 1584 2836 1778 
Q 2625 1972 2144 2069 
L 1759 2144 
Q 1053 2284 737 2584 
Q 422 2884 422 3419 
Q 422 4038 858 4394 
Q 1294 4750 2059 4750 
Q 2388 4750 2728 4690 
Q 3069 4631 3425 4513 
z
" transform="scale(0.015625)"/>
       <path id="DejaVuSans-6d" d="M 3328 2828 
Q 3544 3216 3844 3400 
Q 4144 3584 4550 3584 
Q 5097 3584 5394 3201 
Q 5691 2819 5691 2113 
L 5691 0 
L 5113 0 
L 5113 2094 
Q 5113 2597 4934 2840 
Q 4756 3084 4391 3084 
Q 3944 3084 3684 2787 
Q 3425 2491 3425 1978 
L 3425 0 
L 2847 0 
L 2847 2094 
Q 2847 2600 2669 2842 
Q 2491 3084 2119 3084 
Q 1678 3084 1418 2786 
Q 1159 2488 1159 1978 
L 1159 0 
L 581 0 
L 581 3500 
L 1159 3500 
L 1159 2956 
Q 1356 3278 1631 3431 
Q 1906 3584 2284 3584 
Q 2666 3584 2933 3390 
Q 3200 3197 3328 2828 
z
" transform="scale(0.015625)"/>
       <path id="DejaVuSans-6c" d="M 603 4863 
L 1178 4863 
L 1178 0 
L 603 0 
L 603 4863 
z
" transform="scale(0.015625)"/>
       <path id="DejaVuSans-61" d="M 2194 1759 
Q 1497 1759 1228 1600 
Q 959 1441 959 1056 
Q 959 750 1161 570 
Q 1363 391 1709 391 
Q 2188 391 2477 730 
Q 2766 1069 2766 1631 
L 2766 1759 
L 2194 1759 
z
M 3341 1997 
L 3341 0 
L 2766 0 
L 2766 531 
Q 2569 213 2275 61 
Q 1981 -91 1556 -91 
Q 1019 -91 701 211 
Q 384 513 384 1019 
Q 384 1609 779 1909 
Q 1175 2209 1959 2209 
L 2766 2209 
L 2766 2266 
Q 2766 2663 2505 2880 
Q 2244 3097 1772 3097 
Q 1472 3097 1187 3025 
Q 903 2953 641 2809 
L 641 3341 
Q 956 3463 1253 3523 
Q 1550 3584 1831 3584 
Q 2591 3584 2966 3190 
Q 3341 2797 3341 1997 
z
" transform="scale(0.015625)"/>
       <path id="DejaVuSans-79" d="M 2059 -325 
Q 1816 -950 1584 -1140 
Q 1353 -1331 966 -1331 
L 506 -1331 
L 506 -850 
L 844 -850 
Q 1081 -850 1212 -737 
Q 1344 -625 1503 -206 
L 1606 56 
L 191 3500 
L 800 3500 
L 1894 763 
L 2988 3500 
L 3597 3500 
L 2059 -325 
z
" transform="scale(0.015625)"/>
      </defs>
      <use xlink:href="#DejaVuSans-53"/>
      <use xlink:href="#DejaVuSans-69" transform="translate(63.476562 0)"/>
      <use xlink:href="#DejaVuSans-6d" transform="translate(91.259766 0)"/>
      <use xlink:href="#DejaVuSans-69" transform="translate(188.671875 0)"/>
      <use xlink:href="#DejaVuSans-6c" transform="translate(216.455078 0)"/>
      <use xlink:href="#DejaVuSans-61" transform="translate(244.238281 0)"/>
      <use xlink:href="#DejaVuSans-72" transform="translate(305.517578 0)"/>
      <use xlink:href="#DejaVuSans-69" transform="translate(346.630859 0)"/>
      <use xlink:href="#DejaVuSans-74" transform="translate(374.414062 0)"/>
      <use xlink:href="#DejaVuSans-79" transform="translate(413.623047 0)"/>
      <use xlink:href="#DejaVuSans-20" transform="translate(472.802734 0)"/>
      <use xlink:href="#DejaVuSans-53" transform="translate(504.589844 0)"/>
      <use xlink:href="#DejaVuSans-63" transform="translate(568.066406 0)"/>
      <use xlink:href="#DejaVuSans-6f" transform="translate(623.046875 0)"/>
      <use xlink:href="#DejaVuSans-72" transform="translate(684.228516 0)"/>
      <use xlink:href="#DejaVuSans-65" transform="translate(723.091797 0)"/>
     </g>
    </g>
   </g>
   <g id="patch_3">
    <path d="M 119.240208 151.808417 
L 251.266875 151.808417 
L 251.266875 102.748838 
L 119.240208 102.748838 
L 119.240208 151.808417 
z
" clip-path="url(#p4ca1df43cd)" style="fill: #3c6682; stroke: #393939; stroke-linejoin: miter"/>
   </g>
   <g id="line2d_9">
    <path d="M 185.253542 151.808417 
L 185.253542 224.879845 
" clip-path="url(#p4ca1df43cd)" style="fill: none; stroke: #393939"/>
   </g>
   <g id="line2d_10">
    <path d="M 185.253542 102.748838 
L 185.253542 94.975083 
" clip-path="url(#p4ca1df43cd)" style="fill: none; stroke: #393939"/>
   </g>
   <g id="line2d_11">
    <path d="M 152.246875 224.879845 
L 218.260208 224.879845 
" clip-path="url(#p4ca1df43cd)" style="fill: none; stroke: #393939; stroke-linecap: round"/>
   </g>
   <g id="line2d_12">
    <path d="M 152.246875 94.975083 
L 218.260208 94.975083 
" clip-path="url(#p4ca1df43cd)" style="fill: none; stroke: #393939; stroke-linecap: round"/>
   </g>
   <g id="line2d_13">
    <defs>
     <path id="me85ef4ced5" d="M 0 3 
C 0.795609 3 1.55874 2.683901 2.12132 2.12132 
C 2.683901 1.55874 3 0.795609 3 0 
C 3 -0.795609 2.683901 -1.55874 2.12132 -2.12132 
C 1.55874 -2.683901 0.795609 -3 0 -3 
C -0.795609 -3 -1.55874 -2.683901 -2.12132 -2.12132 
C -2.683901 -1.55874 -3 -0.795609 -3 0 
C -3 0.795609 -2.683901 1.55874 -2.12132 2.12132 
C -1.55874 2.683901 -0.795609 3 0 3 
z
" style="stroke: #393939"/>
    </defs>
    <g clip-path="url(#p4ca1df43cd)">
     <use xlink:href="#me85ef4ced5" x="185.253542" y="261.686194" style="fill-opacity: 0; stroke: #393939"/>
     <use xlink:href="#me85ef4ced5" x="185.253542" y="228.700574" style="fill-opacity: 0; stroke: #393939"/>
     <use xlink:href="#me85ef4ced5" x="185.253542" y="276.84175" style="fill-opacity: 0; stroke: #393939"/>
     <use xlink:href="#me85ef4ced5" x="185.253542" y="273.594131" style="fill-opacity: 0; stroke: #393939"/>
     <use xlink:href="#me85ef4ced5" x="185.253542" y="237.058417" style="fill-opacity: 0; stroke: #393939"/>
     <use xlink:href="#me85ef4ced5" x="185.253542" y="276.84175" style="fill-opacity: 0; stroke: #393939"/>
     <use xlink:href="#me85ef4ced5" x="185.253542" y="276.84175" style="fill-opacity: 0; stroke: #393939"/>
     <use xlink:href="#me85ef4ced5" x="185.253542" y="231.375083" style="fill-opacity: 0; stroke: #393939"/>
     <use xlink:href="#me85ef4ced5" x="185.253542" y="260.308417" style="fill-opacity: 0; stroke: #393939"/>
     <use xlink:href="#me85ef4ced5" x="185.253542" y="231.375083" style="fill-opacity: 0; stroke: #393939"/>
     <use xlink:href="#me85ef4ced5" x="185.253542" y="246.530639" style="fill-opacity: 0; stroke: #393939"/>
     <use xlink:href="#me85ef4ced5" x="185.253542" y="246.530639" style="fill-opacity: 0; stroke: #393939"/>
     <use xlink:href="#me85ef4ced5" x="185.253542" y="257.356036" style="fill-opacity: 0; stroke: #393939"/>
     <use xlink:href="#me85ef4ced5" x="185.253542" y="291.997306" style="fill-opacity: 0; stroke: #393939"/>
     <use xlink:href="#me85ef4ced5" x="185.253542" y="295.563319" style="fill-opacity: 0; stroke: #393939"/>
     <use xlink:href="#me85ef4ced5" x="185.253542" y="299.575083" style="fill-opacity: 0; stroke: #393939"/>
     <use xlink:href="#me85ef4ced5" x="185.253542" y="254.108417" style="fill-opacity: 0; stroke: #393939"/>
     <use xlink:href="#me85ef4ced5" x="185.253542" y="322.308417" style="fill-opacity: 0; stroke: #393939"/>
     <use xlink:href="#me85ef4ced5" x="185.253542" y="322.308417" style="fill-opacity: 0; stroke: #393939"/>
     <use xlink:href="#me85ef4ced5" x="185.253542" y="322.308417" style="fill-opacity: 0; stroke: #393939"/>
     <use xlink:href="#me85ef4ced5" x="185.253542" y="322.308417" style="fill-opacity: 0; stroke: #393939"/>
     <use xlink:href="#me85ef4ced5" x="185.253542" y="269.846878" style="fill-opacity: 0; stroke: #393939"/>
     <use xlink:href="#me85ef4ced5" x="185.253542" y="234.872519" style="fill-opacity: 0; stroke: #393939"/>
     <use xlink:href="#me85ef4ced5" x="185.253542" y="231.375083" style="fill-opacity: 0; stroke: #393939"/>
     <use xlink:href="#me85ef4ced5" x="185.253542" y="237.058417" style="fill-opacity: 0; stroke: #393939"/>
     <use xlink:href="#me85ef4ced5" x="185.253542" y="231.375083" style="fill-opacity: 0; stroke: #393939"/>
     <use xlink:href="#me85ef4ced5" x="185.253542" y="231.375083" style="fill-opacity: 0; stroke: #393939"/>
     <use xlink:href="#me85ef4ced5" x="185.253542" y="231.375083" style="fill-opacity: 0; stroke: #393939"/>
     <use xlink:href="#me85ef4ced5" x="185.253542" y="231.375083" style="fill-opacity: 0; stroke: #393939"/>
     <use xlink:href="#me85ef4ced5" x="185.253542" y="241.11794" style="fill-opacity: 0; stroke: #393939"/>
     <use xlink:href="#me85ef4ced5" x="185.253542" y="279.683417" style="fill-opacity: 0; stroke: #393939"/>
     <use xlink:href="#me85ef4ced5" x="185.253542" y="276.84175" style="fill-opacity: 0; stroke: #393939"/>
     <use xlink:href="#me85ef4ced5" x="185.253542" y="237.058417" style="fill-opacity: 0; stroke: #393939"/>
     <use xlink:href="#me85ef4ced5" x="185.253542" y="231.375083" style="fill-opacity: 0; stroke: #393939"/>
     <use xlink:href="#me85ef4ced5" x="185.253542" y="231.375083" style="fill-opacity: 0; stroke: #393939"/>
     <use xlink:href="#me85ef4ced5" x="185.253542" y="299.575083" style="fill-opacity: 0; stroke: #393939"/>
     <use xlink:href="#me85ef4ced5" x="185.253542" y="284.419528" style="fill-opacity: 0; stroke: #393939"/>
     <use xlink:href="#me85ef4ced5" x="185.253542" y="241.11794" style="fill-opacity: 0; stroke: #393939"/>
     <use xlink:href="#me85ef4ced5" x="185.253542" y="231.375083" style="fill-opacity: 0; stroke: #393939"/>
     <use xlink:href="#me85ef4ced5" x="185.253542" y="299.575083" style="fill-opacity: 0; stroke: #393939"/>
     <use xlink:href="#me85ef4ced5" x="185.253542" y="231.375083" style="fill-opacity: 0; stroke: #393939"/>
     <use xlink:href="#me85ef4ced5" x="185.253542" y="270.64175" style="fill-opacity: 0; stroke: #393939"/>
     <use xlink:href="#me85ef4ced5" x="185.253542" y="273.594131" style="fill-opacity: 0; stroke: #393939"/>
     <use xlink:href="#me85ef4ced5" x="185.253542" y="303.363972" style="fill-opacity: 0; stroke: #393939"/>
     <use xlink:href="#me85ef4ced5" x="185.253542" y="265.475083" style="fill-opacity: 0; stroke: #393939"/>
     <use xlink:href="#me85ef4ced5" x="185.253542" y="239.64175" style="fill-opacity: 0; stroke: #393939"/>
     <use xlink:href="#me85ef4ced5" x="185.253542" y="271.789898" style="fill-opacity: 0; stroke: #393939"/>
     <use xlink:href="#me85ef4ced5" x="185.253542" y="289.832226" style="fill-opacity: 0; stroke: #393939"/>
     <use xlink:href="#me85ef4ced5" x="185.253542" y="276.84175" style="fill-opacity: 0; stroke: #393939"/>
     <use xlink:href="#me85ef4ced5" x="185.253542" y="242.74175" style="fill-opacity: 0; stroke: #393939"/>
     <use xlink:href="#me85ef4ced5" x="185.253542" y="304.12175" style="fill-opacity: 0; stroke: #393939"/>
    </g>
   </g>
   <g id="patch_4">
    <path d="M 383.293542 142.06556 
L 515.320208 142.06556 
L 515.320208 94.975083 
L 383.293542 94.975083 
L 383.293542 142.06556 
z
" clip-path="url(#p4ca1df43cd)" style="fill: #45a778; stroke: #393939; stroke-linejoin: miter"/>
   </g>
   <g id="line2d_14">
    <path d="M 449.306875 142.06556 
L 449.306875 208.64175 
" clip-path="url(#p4ca1df43cd)" style="fill: none; stroke: #393939"/>
   </g>
   <g id="line2d_15">
    <path d="M 449.306875 94.975083 
L 449.306875 94.975083 
" clip-path="url(#p4ca1df43cd)" style="fill: none; stroke: #393939"/>
   </g>
   <g id="line2d_16">
    <path d="M 416.300208 208.64175 
L 482.313542 208.64175 
" clip-path="url(#p4ca1df43cd)" style="fill: none; stroke: #393939; stroke-linecap: round"/>
   </g>
   <g id="line2d_17">
    <path d="M 416.300208 94.975083 
L 482.313542 94.975083 
" clip-path="url(#p4ca1df43cd)" style="fill: none; stroke: #393939; stroke-linecap: round"/>
   </g>
   <g id="line2d_18">
    <g clip-path="url(#p4ca1df43cd)">
     <use xlink:href="#me85ef4ced5" x="449.306875" y="231.375083" style="fill-opacity: 0; stroke: #393939"/>
    </g>
   </g>
   <g id="line2d_19">
    <path d="M 119.240208 127.451274 
L 251.266875 127.451274 
" clip-path="url(#p4ca1df43cd)" style="fill: none; stroke: #393939"/>
   </g>
   <g id="line2d_20">
    <path d="M 383.293542 113.919528 
L 515.320208 113.919528 
" clip-path="url(#p4ca1df43cd)" style="fill: none; stroke: #393939"/>
   </g>
   <g id="patch_5">
    <path d="M 53.226875 379.14175 
L 53.226875 38.14175 
" style="fill: none; stroke: #cccccc; stroke-width: 0.8; stroke-linejoin: miter; stroke-linecap: square"/>
   </g>
   <g id="patch_6">
    <path d="M 845.386875 379.14175 
L 845.386875 38.14175 
" style="fill: none; stroke: #cccccc; stroke-width: 0.8; stroke-linejoin: miter; stroke-linecap: square"/>
   </g>
   <g id="patch_7">
    <path d="M 53.226875 379.14175 
L 845.386875 379.14175 
" style="fill: none; stroke: #cccccc; stroke-width: 0.8; stroke-linejoin: miter; stroke-linecap: square"/>
   </g>
   <g id="patch_8">
    <path d="M 53.226875 38.14175 
L 845.386875 38.14175 
" style="fill: none; stroke: #cccccc; stroke-width: 0.8; stroke-linejoin: miter; stroke-linecap: square"/>
   </g>
   <g id="patch_9">
    <path d="M 312.789008 60.794483 
Q 246.326637 57.539281 187.907234 93.339815 
" style="fill: none; stroke: #808080; stroke-linecap: round"/>
    <path d="M 191.471676 93.031996 
L 187.907234 93.339815 
L 189.799644 90.30357 
" style="fill: none; stroke: #808080; stroke-linecap: round"/>
   </g>
   <g id="text_13">
    <!-- Maximum -->
    <g style="fill: #262626" transform="translate(317.280208 63.2835) scale(0.08 -0.08)">
     <defs>
      <path id="DejaVuSans-4d" d="M 628 4666 
L 1569 4666 
L 2759 1491 
L 3956 4666 
L 4897 4666 
L 4897 0 
L 4281 0 
L 4281 4097 
L 3078 897 
L 2444 897 
L 1241 4097 
L 1241 0 
L 628 0 
L 628 4666 
z
" transform="scale(0.015625)"/>
      <path id="DejaVuSans-78" d="M 3513 3500 
L 2247 1797 
L 3578 0 
L 2900 0 
L 1881 1375 
L 863 0 
L 184 0 
L 1544 1831 
L 300 3500 
L 978 3500 
L 1906 2253 
L 2834 3500 
L 3513 3500 
z
" transform="scale(0.015625)"/>
     </defs>
     <use xlink:href="#DejaVuSans-4d"/>
     <use xlink:href="#DejaVuSans-61" transform="translate(86.279297 0)"/>
     <use xlink:href="#DejaVuSans-78" transform="translate(147.558594 0)"/>
     <use xlink:href="#DejaVuSans-69" transform="translate(206.738281 0)"/>
     <use xlink:href="#DejaVuSans-6d" transform="translate(234.521484 0)"/>
     <use xlink:href="#DejaVuSans-75" transform="translate(331.933594 0)"/>
     <use xlink:href="#DejaVuSans-6d" transform="translate(395.3125 0)"/>
    </g>
    <!-- (Upper Whisker) -->
    <g style="fill: #262626" transform="translate(317.280208 72.24175) scale(0.08 -0.08)">
     <defs>
      <path id="DejaVuSans-70" d="M 1159 525 
L 1159 -1331 
L 581 -1331 
L 581 3500 
L 1159 3500 
L 1159 2969 
Q 1341 3281 1617 3432 
Q 1894 3584 2278 3584 
Q 2916 3584 3314 3078 
Q 3713 2572 3713 1747 
Q 3713 922 3314 415 
Q 2916 -91 2278 -91 
Q 1894 -91 1617 61 
Q 1341 213 1159 525 
z
M 3116 1747 
Q 3116 2381 2855 2742 
Q 2594 3103 2138 3103 
Q 1681 3103 1420 2742 
Q 1159 2381 1159 1747 
Q 1159 1113 1420 752 
Q 1681 391 2138 391 
Q 2594 391 2855 752 
Q 3116 1113 3116 1747 
z
" transform="scale(0.015625)"/>
      <path id="DejaVuSans-57" d="M 213 4666 
L 850 4666 
L 1831 722 
L 2809 4666 
L 3519 4666 
L 4500 722 
L 5478 4666 
L 6119 4666 
L 4947 0 
L 4153 0 
L 3169 4050 
L 2175 0 
L 1381 0 
L 213 4666 
z
" transform="scale(0.015625)"/>
      <path id="DejaVuSans-68" d="M 3513 2113 
L 3513 0 
L 2938 0 
L 2938 2094 
Q 2938 2591 2744 2837 
Q 2550 3084 2163 3084 
Q 1697 3084 1428 2787 
Q 1159 2491 1159 1978 
L 1159 0 
L 581 0 
L 581 4863 
L 1159 4863 
L 1159 2956 
Q 1366 3272 1645 3428 
Q 1925 3584 2291 3584 
Q 2894 3584 3203 3211 
Q 3513 2838 3513 2113 
z
" transform="scale(0.015625)"/>
      <path id="DejaVuSans-6b" d="M 581 4863 
L 1159 4863 
L 1159 1991 
L 2875 3500 
L 3609 3500 
L 1753 1863 
L 3688 0 
L 2938 0 
L 1159 1709 
L 1159 0 
L 581 0 
L 581 4863 
z
" transform="scale(0.015625)"/>
     </defs>
     <use xlink:href="#DejaVuSans-28"/>
     <use xlink:href="#DejaVuSans-55" transform="translate(39.013672 0)"/>
     <use xlink:href="#DejaVuSans-70" transform="translate(112.207031 0)"/>
     <use xlink:href="#DejaVuSans-70" transform="translate(175.683594 0)"/>
     <use xlink:href="#DejaVuSans-65" transform="translate(239.160156 0)"/>
     <use xlink:href="#DejaVuSans-72" transform="translate(300.683594 0)"/>
     <use xlink:href="#DejaVuSans-20" transform="translate(341.796875 0)"/>
     <use xlink:href="#DejaVuSans-57" transform="translate(373.583984 0)"/>
     <use xlink:href="#DejaVuSans-68" transform="translate(472.460938 0)"/>
     <use xlink:href="#DejaVuSans-69" transform="translate(535.839844 0)"/>
     <use xlink:href="#DejaVuSans-73" transform="translate(563.623047 0)"/>
     <use xlink:href="#DejaVuSans-6b" transform="translate(615.722656 0)"/>
     <use xlink:href="#DejaVuSans-65" transform="translate(670.007812 0)"/>
     <use xlink:href="#DejaVuSans-72" transform="translate(731.53125 0)"/>
     <use xlink:href="#DejaVuSans-29" transform="translate(772.644531 0)"/>
    </g>
   </g>
   <g id="patch_10">
    <path d="M 330.955869 82.410024 
Q 257.092447 67.889434 188.055734 101.381129 
" style="fill: none; stroke: #808080; stroke-linecap: round"/>
    <path d="M 191.633186 101.423945 
L 188.055734 101.381129 
L 190.236458 98.544856 
" style="fill: none; stroke: #808080; stroke-linecap: round"/>
   </g>
   <g id="text_14">
    <!-- 75th Percentile (Q3) -->
    <g style="fill: #262626" transform="translate(317.280208 91.382171) scale(0.08 -0.08)">
     <defs>
      <path id="DejaVuSans-37" d="M 525 4666 
L 3525 4666 
L 3525 4397 
L 1831 0 
L 1172 0 
L 2766 4134 
L 525 4134 
L 525 4666 
z
" transform="scale(0.015625)"/>
      <path id="DejaVuSans-35" d="M 691 4666 
L 3169 4666 
L 3169 4134 
L 1269 4134 
L 1269 2991 
Q 1406 3038 1543 3061 
Q 1681 3084 1819 3084 
Q 2600 3084 3056 2656 
Q 3513 2228 3513 1497 
Q 3513 744 3044 326 
Q 2575 -91 1722 -91 
Q 1428 -91 1123 -41 
Q 819 9 494 109 
L 494 744 
Q 775 591 1075 516 
Q 1375 441 1709 441 
Q 2250 441 2565 725 
Q 2881 1009 2881 1497 
Q 2881 1984 2565 2268 
Q 2250 2553 1709 2553 
Q 1456 2553 1204 2497 
Q 953 2441 691 2322 
L 691 4666 
z
" transform="scale(0.015625)"/>
      <path id="DejaVuSans-50" d="M 1259 4147 
L 1259 2394 
L 2053 2394 
Q 2494 2394 2734 2622 
Q 2975 2850 2975 3272 
Q 2975 3691 2734 3919 
Q 2494 4147 2053 4147 
L 1259 4147 
z
M 628 4666 
L 2053 4666 
Q 2838 4666 3239 4311 
Q 3641 3956 3641 3272 
Q 3641 2581 3239 2228 
Q 2838 1875 2053 1875 
L 1259 1875 
L 1259 0 
L 628 0 
L 628 4666 
z
" transform="scale(0.015625)"/>
      <path id="DejaVuSans-51" d="M 2522 4238 
Q 1834 4238 1429 3725 
Q 1025 3213 1025 2328 
Q 1025 1447 1429 934 
Q 1834 422 2522 422 
Q 3209 422 3611 934 
Q 4013 1447 4013 2328 
Q 4013 3213 3611 3725 
Q 3209 4238 2522 4238 
z
M 3406 84 
L 4238 -825 
L 3475 -825 
L 2784 -78 
Q 2681 -84 2626 -87 
Q 2572 -91 2522 -91 
Q 1538 -91 948 567 
Q 359 1225 359 2328 
Q 359 3434 948 4092 
Q 1538 4750 2522 4750 
Q 3503 4750 4090 4092 
Q 4678 3434 4678 2328 
Q 4678 1516 4351 937 
Q 4025 359 3406 84 
z
" transform="scale(0.015625)"/>
      <path id="DejaVuSans-33" d="M 2597 2516 
Q 3050 2419 3304 2112 
Q 3559 1806 3559 1356 
Q 3559 666 3084 287 
Q 2609 -91 1734 -91 
Q 1441 -91 1130 -33 
Q 819 25 488 141 
L 488 750 
Q 750 597 1062 519 
Q 1375 441 1716 441 
Q 2309 441 2620 675 
Q 2931 909 2931 1356 
Q 2931 1769 2642 2001 
Q 2353 2234 1838 2234 
L 1294 2234 
L 1294 2753 
L 1863 2753 
Q 2328 2753 2575 2939 
Q 2822 3125 2822 3475 
Q 2822 3834 2567 4026 
Q 2313 4219 1838 4219 
Q 1578 4219 1281 4162 
Q 984 4106 628 3988 
L 628 4550 
Q 988 4650 1302 4700 
Q 1616 4750 1894 4750 
Q 2613 4750 3031 4423 
Q 3450 4097 3450 3541 
Q 3450 3153 3228 2886 
Q 3006 2619 2597 2516 
z
" transform="scale(0.015625)"/>
     </defs>
     <use xlink:href="#DejaVuSans-37"/>
     <use xlink:href="#DejaVuSans-35" transform="translate(63.623047 0)"/>
     <use xlink:href="#DejaVuSans-74" transform="translate(127.246094 0)"/>
     <use xlink:href="#DejaVuSans-68" transform="translate(166.455078 0)"/>
     <use xlink:href="#DejaVuSans-20" transform="translate(229.833984 0)"/>
     <use xlink:href="#DejaVuSans-50" transform="translate(261.621094 0)"/>
     <use xlink:href="#DejaVuSans-65" transform="translate(318.298828 0)"/>
     <use xlink:href="#DejaVuSans-72" transform="translate(379.822266 0)"/>
     <use xlink:href="#DejaVuSans-63" transform="translate(418.685547 0)"/>
     <use xlink:href="#DejaVuSans-65" transform="translate(473.666016 0)"/>
     <use xlink:href="#DejaVuSans-6e" transform="translate(535.189453 0)"/>
     <use xlink:href="#DejaVuSans-74" transform="translate(598.568359 0)"/>
     <use xlink:href="#DejaVuSans-69" transform="translate(637.777344 0)"/>
     <use xlink:href="#DejaVuSans-6c" transform="translate(665.560547 0)"/>
     <use xlink:href="#DejaVuSans-65" transform="translate(693.34375 0)"/>
     <use xlink:href="#DejaVuSans-20" transform="translate(754.867188 0)"/>
     <use xlink:href="#DejaVuSans-28" transform="translate(786.654297 0)"/>
     <use xlink:href="#DejaVuSans-51" transform="translate(825.667969 0)"/>
     <use xlink:href="#DejaVuSans-33" transform="translate(904.378906 0)"/>
     <use xlink:href="#DejaVuSans-29" transform="translate(968.001953 0)"/>
    </g>
   </g>
   <g id="patch_11">
    <path d="M 312.86228 118.952172 
Q 249.656433 101.210135 188.136952 126.267356 
" style="fill: none; stroke: #808080; stroke-linecap: round"/>
    <path d="M 191.704098 126.542066 
L 188.136952 126.267356 
L 190.497007 123.578465 
" style="fill: none; stroke: #808080; stroke-linecap: round"/>
   </g>
   <g id="text_15">
    <!-- Median -->
    <g style="fill: #262626" transform="translate(317.280208 127.451274) scale(0.08 -0.08)">
     <use xlink:href="#DejaVuSans-4d"/>
     <use xlink:href="#DejaVuSans-65" transform="translate(86.279297 0)"/>
     <use xlink:href="#DejaVuSans-64" transform="translate(147.802734 0)"/>
     <use xlink:href="#DejaVuSans-69" transform="translate(211.279297 0)"/>
     <use xlink:href="#DejaVuSans-61" transform="translate(239.0625 0)"/>
     <use xlink:href="#DejaVuSans-6e" transform="translate(300.341797 0)"/>
    </g>
   </g>
   <g id="patch_12">
    <path d="M 340.736834 153.877849 
Q 265.393882 125.248232 188.212398 150.820204 
" style="fill: none; stroke: #808080; stroke-linecap: round"/>
    <path d="M 191.753227 151.332581 
L 188.212398 150.820204 
L 190.746797 148.294967 
" style="fill: none; stroke: #808080; stroke-linecap: round"/>
   </g>
   <g id="text_16">
    <!-- 25th Percentile (Q1) -->
    <g style="fill: #262626" transform="translate(317.280208 163.175083) scale(0.08 -0.08)">
     <use xlink:href="#DejaVuSans-32"/>
     <use xlink:href="#DejaVuSans-35" transform="translate(63.623047 0)"/>
     <use xlink:href="#DejaVuSans-74" transform="translate(127.246094 0)"/>
     <use xlink:href="#DejaVuSans-68" transform="translate(166.455078 0)"/>
     <use xlink:href="#DejaVuSans-20" transform="translate(229.833984 0)"/>
     <use xlink:href="#DejaVuSans-50" transform="translate(261.621094 0)"/>
     <use xlink:href="#DejaVuSans-65" transform="translate(318.298828 0)"/>
     <use xlink:href="#DejaVuSans-72" transform="translate(379.822266 0)"/>
     <use xlink:href="#DejaVuSans-63" transform="translate(418.685547 0)"/>
     <use xlink:href="#DejaVuSans-65" transform="translate(473.666016 0)"/>
     <use xlink:href="#DejaVuSans-6e" transform="translate(535.189453 0)"/>
     <use xlink:href="#DejaVuSans-74" transform="translate(598.568359 0)"/>
     <use xlink:href="#DejaVuSans-69" transform="translate(637.777344 0)"/>
     <use xlink:href="#DejaVuSans-6c" transform="translate(665.560547 0)"/>
     <use xlink:href="#DejaVuSans-65" transform="translate(693.34375 0)"/>
     <use xlink:href="#DejaVuSans-20" transform="translate(754.867188 0)"/>
     <use xlink:href="#DejaVuSans-28" transform="translate(786.654297 0)"/>
     <use xlink:href="#DejaVuSans-51" transform="translate(825.667969 0)"/>
     <use xlink:href="#DejaVuSans-31" transform="translate(904.378906 0)"/>
     <use xlink:href="#DejaVuSans-29" transform="translate(968.001953 0)"/>
    </g>
   </g>
   <g id="patch_13">
    <path d="M 323.754698 229.361054 
Q 257.655962 204.412995 188.253181 224.024119 
" style="fill: none; stroke: #808080; stroke-linecap: round"/>
    <path d="M 191.767678 224.693679 
L 188.253181 224.024119 
L 190.897527 221.614257 
" style="fill: none; stroke: #808080; stroke-linecap: round"/>
   </g>
   <g id="text_17">
    <!-- Minimum -->
    <g style="fill: #262626" transform="translate(317.280208 238.654929) scale(0.08 -0.08)">
     <use xlink:href="#DejaVuSans-4d"/>
     <use xlink:href="#DejaVuSans-69" transform="translate(86.279297 0)"/>
     <use xlink:href="#DejaVuSans-6e" transform="translate(114.0625 0)"/>
     <use xlink:href="#DejaVuSans-69" transform="translate(177.441406 0)"/>
     <use xlink:href="#DejaVuSans-6d" transform="translate(205.224609 0)"/>
     <use xlink:href="#DejaVuSans-75" transform="translate(302.636719 0)"/>
     <use xlink:href="#DejaVuSans-6d" transform="translate(366.015625 0)"/>
    </g>
    <!-- (Lower Whisker) -->
    <g style="fill: #262626" transform="translate(317.280208 247.613179) scale(0.08 -0.08)">
     <defs>
      <path id="DejaVuSans-4c" d="M 628 4666 
L 1259 4666 
L 1259 531 
L 3531 531 
L 3531 0 
L 628 0 
L 628 4666 
z
" transform="scale(0.015625)"/>
      <path id="DejaVuSans-77" d="M 269 3500 
L 844 3500 
L 1563 769 
L 2278 3500 
L 2956 3500 
L 3675 769 
L 4391 3500 
L 4966 3500 
L 4050 0 
L 3372 0 
L 2619 2869 
L 1863 0 
L 1184 0 
L 269 3500 
z
" transform="scale(0.015625)"/>
     </defs>
     <use xlink:href="#DejaVuSans-28"/>
     <use xlink:href="#DejaVuSans-4c" transform="translate(39.013672 0)"/>
     <use xlink:href="#DejaVuSans-6f" transform="translate(92.976562 0)"/>
     <use xlink:href="#DejaVuSans-77" transform="translate(154.158203 0)"/>
     <use xlink:href="#DejaVuSans-65" transform="translate(235.945312 0)"/>
     <use xlink:href="#DejaVuSans-72" transform="translate(297.46875 0)"/>
     <use xlink:href="#DejaVuSans-20" transform="translate(338.582031 0)"/>
     <use xlink:href="#DejaVuSans-57" transform="translate(370.369141 0)"/>
     <use xlink:href="#DejaVuSans-68" transform="translate(469.246094 0)"/>
     <use xlink:href="#DejaVuSans-69" transform="translate(532.625 0)"/>
     <use xlink:href="#DejaVuSans-73" transform="translate(560.408203 0)"/>
     <use xlink:href="#DejaVuSans-6b" transform="translate(612.507812 0)"/>
     <use xlink:href="#DejaVuSans-65" transform="translate(666.792969 0)"/>
     <use xlink:href="#DejaVuSans-72" transform="translate(728.316406 0)"/>
     <use xlink:href="#DejaVuSans-29" transform="translate(769.429688 0)"/>
    </g>
   </g>
   <g id="text_18">
    <g id="patch_14">
     <path d="M 366.090875 132.942377 
L 430.842125 132.942377 
L 430.842125 108.241627 
L 366.090875 108.241627 
z
" style="fill: #ffffff; opacity: 0.8; stroke: #808080; stroke-linejoin: miter"/>
    </g>
    <!-- IQR = Q3 - Q1 -->
    <g style="fill: #262626" transform="translate(370.090875 118.320377) scale(0.08 -0.08)">
     <defs>
      <path id="DejaVuSans-49" d="M 628 4666 
L 1259 4666 
L 1259 0 
L 628 0 
L 628 4666 
z
" transform="scale(0.015625)"/>
      <path id="DejaVuSans-52" d="M 2841 2188 
Q 3044 2119 3236 1894 
Q 3428 1669 3622 1275 
L 4263 0 
L 3584 0 
L 2988 1197 
Q 2756 1666 2539 1819 
Q 2322 1972 1947 1972 
L 1259 1972 
L 1259 0 
L 628 0 
L 628 4666 
L 2053 4666 
Q 2853 4666 3247 4331 
Q 3641 3997 3641 3322 
Q 3641 2881 3436 2590 
Q 3231 2300 2841 2188 
z
M 1259 4147 
L 1259 2491 
L 2053 2491 
Q 2509 2491 2742 2702 
Q 2975 2913 2975 3322 
Q 2975 3731 2742 3939 
Q 2509 4147 2053 4147 
L 1259 4147 
z
" transform="scale(0.015625)"/>
      <path id="DejaVuSans-3d" d="M 678 2906 
L 4684 2906 
L 4684 2381 
L 678 2381 
L 678 2906 
z
M 678 1631 
L 4684 1631 
L 4684 1100 
L 678 1100 
L 678 1631 
z
" transform="scale(0.015625)"/>
     </defs>
     <use xlink:href="#DejaVuSans-49"/>
     <use xlink:href="#DejaVuSans-51" transform="translate(29.492188 0)"/>
     <use xlink:href="#DejaVuSans-52" transform="translate(108.203125 0)"/>
     <use xlink:href="#DejaVuSans-20" transform="translate(177.685547 0)"/>
     <use xlink:href="#DejaVuSans-3d" transform="translate(209.472656 0)"/>
     <use xlink:href="#DejaVuSans-20" transform="translate(293.261719 0)"/>
     <use xlink:href="#DejaVuSans-51" transform="translate(325.048828 0)"/>
     <use xlink:href="#DejaVuSans-33" transform="translate(403.759766 0)"/>
     <use xlink:href="#DejaVuSans-20" transform="translate(467.382812 0)"/>
     <use xlink:href="#DejaVuSans-2d" transform="translate(499.169922 0)"/>
     <use xlink:href="#DejaVuSans-20" transform="translate(535.253906 0)"/>
     <use xlink:href="#DejaVuSans-51" transform="translate(567.041016 0)"/>
     <use xlink:href="#DejaVuSans-31" transform="translate(645.751953 0)"/>
    </g>
    <!-- = 0.216 -->
    <g style="fill: #262626" transform="translate(370.090875 127.278627) scale(0.08 -0.08)">
     <use xlink:href="#DejaVuSans-3d"/>
     <use xlink:href="#DejaVuSans-20" transform="translate(83.789062 0)"/>
     <use xlink:href="#DejaVuSans-30" transform="translate(115.576172 0)"/>
     <use xlink:href="#DejaVuSans-2e" transform="translate(179.199219 0)"/>
     <use xlink:href="#DejaVuSans-32" transform="translate(210.986328 0)"/>
     <use xlink:href="#DejaVuSans-31" transform="translate(274.609375 0)"/>
     <use xlink:href="#DejaVuSans-36" transform="translate(338.232422 0)"/>
    </g>
   </g>
   <g id="patch_15">
    <path d="M 576.842342 60.794483 
Q 510.37997 57.539281 451.960567 93.339815 
" style="fill: none; stroke: #808080; stroke-linecap: round"/>
    <path d="M 455.525009 93.031996 
L 451.960567 93.339815 
L 453.852977 90.30357 
" style="fill: none; stroke: #808080; stroke-linecap: round"/>
   </g>
   <g id="text_19">
    <!-- Maximum -->
    <g style="fill: #262626" transform="translate(581.333542 63.2835) scale(0.08 -0.08)">
     <use xlink:href="#DejaVuSans-4d"/>
     <use xlink:href="#DejaVuSans-61" transform="translate(86.279297 0)"/>
     <use xlink:href="#DejaVuSans-78" transform="translate(147.558594 0)"/>
     <use xlink:href="#DejaVuSans-69" transform="translate(206.738281 0)"/>
     <use xlink:href="#DejaVuSans-6d" transform="translate(234.521484 0)"/>
     <use xlink:href="#DejaVuSans-75" transform="translate(331.933594 0)"/>
     <use xlink:href="#DejaVuSans-6d" transform="translate(395.3125 0)"/>
    </g>
    <!-- (Upper Whisker) -->
    <g style="fill: #262626" transform="translate(581.333542 72.24175) scale(0.08 -0.08)">
     <use xlink:href="#DejaVuSans-28"/>
     <use xlink:href="#DejaVuSans-55" transform="translate(39.013672 0)"/>
     <use xlink:href="#DejaVuSans-70" transform="translate(112.207031 0)"/>
     <use xlink:href="#DejaVuSans-70" transform="translate(175.683594 0)"/>
     <use xlink:href="#DejaVuSans-65" transform="translate(239.160156 0)"/>
     <use xlink:href="#DejaVuSans-72" transform="translate(300.683594 0)"/>
     <use xlink:href="#DejaVuSans-20" transform="translate(341.796875 0)"/>
     <use xlink:href="#DejaVuSans-57" transform="translate(373.583984 0)"/>
     <use xlink:href="#DejaVuSans-68" transform="translate(472.460938 0)"/>
     <use xlink:href="#DejaVuSans-69" transform="translate(535.839844 0)"/>
     <use xlink:href="#DejaVuSans-73" transform="translate(563.623047 0)"/>
     <use xlink:href="#DejaVuSans-6b" transform="translate(615.722656 0)"/>
     <use xlink:href="#DejaVuSans-65" transform="translate(670.007812 0)"/>
     <use xlink:href="#DejaVuSans-72" transform="translate(731.53125 0)"/>
     <use xlink:href="#DejaVuSans-29" transform="translate(772.644531 0)"/>
    </g>
   </g>
   <g id="patch_16">
    <path d="M 595.009202 74.63627 
Q 521.145781 60.115679 452.109067 93.607374 
" style="fill: none; stroke: #808080; stroke-linecap: round"/>
    <path d="M 455.686519 93.65019 
L 452.109067 93.607374 
L 454.289791 90.771102 
" style="fill: none; stroke: #808080; stroke-linecap: round"/>
   </g>
   <g id="text_20">
    <!-- 75th Percentile (Q3) -->
    <g style="fill: #262626" transform="translate(581.333542 83.608417) scale(0.08 -0.08)">
     <use xlink:href="#DejaVuSans-37"/>
     <use xlink:href="#DejaVuSans-35" transform="translate(63.623047 0)"/>
     <use xlink:href="#DejaVuSans-74" transform="translate(127.246094 0)"/>
     <use xlink:href="#DejaVuSans-68" transform="translate(166.455078 0)"/>
     <use xlink:href="#DejaVuSans-20" transform="translate(229.833984 0)"/>
     <use xlink:href="#DejaVuSans-50" transform="translate(261.621094 0)"/>
     <use xlink:href="#DejaVuSans-65" transform="translate(318.298828 0)"/>
     <use xlink:href="#DejaVuSans-72" transform="translate(379.822266 0)"/>
     <use xlink:href="#DejaVuSans-63" transform="translate(418.685547 0)"/>
     <use xlink:href="#DejaVuSans-65" transform="translate(473.666016 0)"/>
     <use xlink:href="#DejaVuSans-6e" transform="translate(535.189453 0)"/>
     <use xlink:href="#DejaVuSans-74" transform="translate(598.568359 0)"/>
     <use xlink:href="#DejaVuSans-69" transform="translate(637.777344 0)"/>
     <use xlink:href="#DejaVuSans-6c" transform="translate(665.560547 0)"/>
     <use xlink:href="#DejaVuSans-65" transform="translate(693.34375 0)"/>
     <use xlink:href="#DejaVuSans-20" transform="translate(754.867188 0)"/>
     <use xlink:href="#DejaVuSans-28" transform="translate(786.654297 0)"/>
     <use xlink:href="#DejaVuSans-51" transform="translate(825.667969 0)"/>
     <use xlink:href="#DejaVuSans-33" transform="translate(904.378906 0)"/>
     <use xlink:href="#DejaVuSans-29" transform="translate(968.001953 0)"/>
    </g>
   </g>
   <g id="patch_17">
    <path d="M 576.915614 105.420426 
Q 513.709766 87.678389 452.190285 112.73561 
" style="fill: none; stroke: #808080; stroke-linecap: round"/>
    <path d="M 455.757431 113.01032 
L 452.190285 112.73561 
L 454.550341 110.046719 
" style="fill: none; stroke: #808080; stroke-linecap: round"/>
   </g>
   <g id="text_21">
    <!-- Median -->
    <g style="fill: #262626" transform="translate(581.333542 113.919528) scale(0.08 -0.08)">
     <use xlink:href="#DejaVuSans-4d"/>
     <use xlink:href="#DejaVuSans-65" transform="translate(86.279297 0)"/>
     <use xlink:href="#DejaVuSans-64" transform="translate(147.802734 0)"/>
     <use xlink:href="#DejaVuSans-69" transform="translate(211.279297 0)"/>
     <use xlink:href="#DejaVuSans-61" transform="translate(239.0625 0)"/>
     <use xlink:href="#DejaVuSans-6e" transform="translate(300.341797 0)"/>
    </g>
   </g>
   <g id="patch_18">
    <path d="M 604.790167 144.134992 
Q 529.447215 115.505375 452.265731 141.077347 
" style="fill: none; stroke: #808080; stroke-linecap: round"/>
    <path d="M 455.80656 141.589723 
L 452.265731 141.077347 
L 454.80013 138.552109 
" style="fill: none; stroke: #808080; stroke-linecap: round"/>
   </g>
   <g id="text_22">
    <!-- 25th Percentile (Q1) -->
    <g style="fill: #262626" transform="translate(581.333542 153.432226) scale(0.08 -0.08)">
     <use xlink:href="#DejaVuSans-32"/>
     <use xlink:href="#DejaVuSans-35" transform="translate(63.623047 0)"/>
     <use xlink:href="#DejaVuSans-74" transform="translate(127.246094 0)"/>
     <use xlink:href="#DejaVuSans-68" transform="translate(166.455078 0)"/>
     <use xlink:href="#DejaVuSans-20" transform="translate(229.833984 0)"/>
     <use xlink:href="#DejaVuSans-50" transform="translate(261.621094 0)"/>
     <use xlink:href="#DejaVuSans-65" transform="translate(318.298828 0)"/>
     <use xlink:href="#DejaVuSans-72" transform="translate(379.822266 0)"/>
     <use xlink:href="#DejaVuSans-63" transform="translate(418.685547 0)"/>
     <use xlink:href="#DejaVuSans-65" transform="translate(473.666016 0)"/>
     <use xlink:href="#DejaVuSans-6e" transform="translate(535.189453 0)"/>
     <use xlink:href="#DejaVuSans-74" transform="translate(598.568359 0)"/>
     <use xlink:href="#DejaVuSans-69" transform="translate(637.777344 0)"/>
     <use xlink:href="#DejaVuSans-6c" transform="translate(665.560547 0)"/>
     <use xlink:href="#DejaVuSans-65" transform="translate(693.34375 0)"/>
     <use xlink:href="#DejaVuSans-20" transform="translate(754.867188 0)"/>
     <use xlink:href="#DejaVuSans-28" transform="translate(786.654297 0)"/>
     <use xlink:href="#DejaVuSans-51" transform="translate(825.667969 0)"/>
     <use xlink:href="#DejaVuSans-31" transform="translate(904.378906 0)"/>
     <use xlink:href="#DejaVuSans-29" transform="translate(968.001953 0)"/>
    </g>
   </g>
   <g id="patch_19">
    <path d="M 587.808031 213.122959 
Q 521.709295 188.1749 452.306515 207.786024 
" style="fill: none; stroke: #808080; stroke-linecap: round"/>
    <path d="M 455.821012 208.455583 
L 452.306515 207.786024 
L 454.950861 205.376162 
" style="fill: none; stroke: #808080; stroke-linecap: round"/>
   </g>
   <g id="text_23">
    <!-- Minimum -->
    <g style="fill: #262626" transform="translate(581.333542 222.416833) scale(0.08 -0.08)">
     <use xlink:href="#DejaVuSans-4d"/>
     <use xlink:href="#DejaVuSans-69" transform="translate(86.279297 0)"/>
     <use xlink:href="#DejaVuSans-6e" transform="translate(114.0625 0)"/>
     <use xlink:href="#DejaVuSans-69" transform="translate(177.441406 0)"/>
     <use xlink:href="#DejaVuSans-6d" transform="translate(205.224609 0)"/>
     <use xlink:href="#DejaVuSans-75" transform="translate(302.636719 0)"/>
     <use xlink:href="#DejaVuSans-6d" transform="translate(366.015625 0)"/>
    </g>
    <!-- (Lower Whisker) -->
    <g style="fill: #262626" transform="translate(581.333542 231.375083) scale(0.08 -0.08)">
     <use xlink:href="#DejaVuSans-28"/>
     <use xlink:href="#DejaVuSans-4c" transform="translate(39.013672 0)"/>
     <use xlink:href="#DejaVuSans-6f" transform="translate(92.976562 0)"/>
     <use xlink:href="#DejaVuSans-77" transform="translate(154.158203 0)"/>
     <use xlink:href="#DejaVuSans-65" transform="translate(235.945312 0)"/>
     <use xlink:href="#DejaVuSans-72" transform="translate(297.46875 0)"/>
     <use xlink:href="#DejaVuSans-20" transform="translate(338.582031 0)"/>
     <use xlink:href="#DejaVuSans-57" transform="translate(370.369141 0)"/>
     <use xlink:href="#DejaVuSans-68" transform="translate(469.246094 0)"/>
     <use xlink:href="#DejaVuSans-69" transform="translate(532.625 0)"/>
     <use xlink:href="#DejaVuSans-73" transform="translate(560.408203 0)"/>
     <use xlink:href="#DejaVuSans-6b" transform="translate(612.507812 0)"/>
     <use xlink:href="#DejaVuSans-65" transform="translate(666.792969 0)"/>
     <use xlink:href="#DejaVuSans-72" transform="translate(728.316406 0)"/>
     <use xlink:href="#DejaVuSans-29" transform="translate(769.429688 0)"/>
    </g>
   </g>
   <g id="text_24">
    <g id="patch_20">
     <path d="M 630.144208 124.184071 
L 694.895458 124.184071 
L 694.895458 99.483321 
L 630.144208 99.483321 
z
" style="fill: #ffffff; opacity: 0.8; stroke: #808080; stroke-linejoin: miter"/>
    </g>
    <!-- IQR = Q3 - Q1 -->
    <g style="fill: #262626" transform="translate(634.144208 109.562071) scale(0.08 -0.08)">
     <use xlink:href="#DejaVuSans-49"/>
     <use xlink:href="#DejaVuSans-51" transform="translate(29.492188 0)"/>
     <use xlink:href="#DejaVuSans-52" transform="translate(108.203125 0)"/>
     <use xlink:href="#DejaVuSans-20" transform="translate(177.685547 0)"/>
     <use xlink:href="#DejaVuSans-3d" transform="translate(209.472656 0)"/>
     <use xlink:href="#DejaVuSans-20" transform="translate(293.261719 0)"/>
     <use xlink:href="#DejaVuSans-51" transform="translate(325.048828 0)"/>
     <use xlink:href="#DejaVuSans-33" transform="translate(403.759766 0)"/>
     <use xlink:href="#DejaVuSans-20" transform="translate(467.382812 0)"/>
     <use xlink:href="#DejaVuSans-2d" transform="translate(499.169922 0)"/>
     <use xlink:href="#DejaVuSans-20" transform="translate(535.253906 0)"/>
     <use xlink:href="#DejaVuSans-51" transform="translate(567.041016 0)"/>
     <use xlink:href="#DejaVuSans-31" transform="translate(645.751953 0)"/>
    </g>
    <!-- = 0.207 -->
    <g style="fill: #262626" transform="translate(634.144208 118.520321) scale(0.08 -0.08)">
     <use xlink:href="#DejaVuSans-3d"/>
     <use xlink:href="#DejaVuSans-20" transform="translate(83.789062 0)"/>
     <use xlink:href="#DejaVuSans-30" transform="translate(115.576172 0)"/>
     <use xlink:href="#DejaVuSans-2e" transform="translate(179.199219 0)"/>
     <use xlink:href="#DejaVuSans-32" transform="translate(210.986328 0)"/>
     <use xlink:href="#DejaVuSans-30" transform="translate(274.609375 0)"/>
     <use xlink:href="#DejaVuSans-37" transform="translate(338.232422 0)"/>
    </g>
   </g>
   <g id="text_25">
    <!-- Jaccard Similarity Score Distribution -->
    <g style="fill: #262626" transform="translate(319.963375 18.14175) scale(0.144 -0.144)">
     <defs>
      <path id="DejaVuSans-4a" d="M 628 4666 
L 1259 4666 
L 1259 325 
Q 1259 -519 939 -900 
Q 619 -1281 -91 -1281 
L -331 -1281 
L -331 -750 
L -134 -750 
Q 284 -750 456 -515 
Q 628 -281 628 325 
L 628 4666 
z
" transform="scale(0.015625)"/>
      <path id="DejaVuSans-62" d="M 3116 1747 
Q 3116 2381 2855 2742 
Q 2594 3103 2138 3103 
Q 1681 3103 1420 2742 
Q 1159 2381 1159 1747 
Q 1159 1113 1420 752 
Q 1681 391 2138 391 
Q 2594 391 2855 752 
Q 3116 1113 3116 1747 
z
M 1159 2969 
Q 1341 3281 1617 3432 
Q 1894 3584 2278 3584 
Q 2916 3584 3314 3078 
Q 3713 2572 3713 1747 
Q 3713 922 3314 415 
Q 2916 -91 2278 -91 
Q 1894 -91 1617 61 
Q 1341 213 1159 525 
L 1159 0 
L 581 0 
L 581 4863 
L 1159 4863 
L 1159 2969 
z
" transform="scale(0.015625)"/>
     </defs>
     <use xlink:href="#DejaVuSans-4a"/>
     <use xlink:href="#DejaVuSans-61" transform="translate(29.492188 0)"/>
     <use xlink:href="#DejaVuSans-63" transform="translate(90.771484 0)"/>
     <use xlink:href="#DejaVuSans-63" transform="translate(145.751953 0)"/>
     <use xlink:href="#DejaVuSans-61" transform="translate(200.732422 0)"/>
     <use xlink:href="#DejaVuSans-72" transform="translate(262.011719 0)"/>
     <use xlink:href="#DejaVuSans-64" transform="translate(301.375 0)"/>
     <use xlink:href="#DejaVuSans-20" transform="translate(364.851562 0)"/>
     <use xlink:href="#DejaVuSans-53" transform="translate(396.638672 0)"/>
     <use xlink:href="#DejaVuSans-69" transform="translate(460.115234 0)"/>
     <use xlink:href="#DejaVuSans-6d" transform="translate(487.898438 0)"/>
     <use xlink:href="#DejaVuSans-69" transform="translate(585.310547 0)"/>
     <use xlink:href="#DejaVuSans-6c" transform="translate(613.09375 0)"/>
     <use xlink:href="#DejaVuSans-61" transform="translate(640.876953 0)"/>
     <use xlink:href="#DejaVuSans-72" transform="translate(702.15625 0)"/>
     <use xlink:href="#DejaVuSans-69" transform="translate(743.269531 0)"/>
     <use xlink:href="#DejaVuSans-74" transform="translate(771.052734 0)"/>
     <use xlink:href="#DejaVuSans-79" transform="translate(810.261719 0)"/>
     <use xlink:href="#DejaVuSans-20" transform="translate(869.441406 0)"/>
     <use xlink:href="#DejaVuSans-53" transform="translate(901.228516 0)"/>
     <use xlink:href="#DejaVuSans-63" transform="translate(964.705078 0)"/>
     <use xlink:href="#DejaVuSans-6f" transform="translate(1019.685547 0)"/>
     <use xlink:href="#DejaVuSans-72" transform="translate(1080.867188 0)"/>
     <use xlink:href="#DejaVuSans-65" transform="translate(1119.730469 0)"/>
     <use xlink:href="#DejaVuSans-20" transform="translate(1181.253906 0)"/>
     <use xlink:href="#DejaVuSans-44" transform="translate(1213.041016 0)"/>
     <use xlink:href="#DejaVuSans-69" transform="translate(1290.042969 0)"/>
     <use xlink:href="#DejaVuSans-73" transform="translate(1317.826172 0)"/>
     <use xlink:href="#DejaVuSans-74" transform="translate(1369.925781 0)"/>
     <use xlink:href="#DejaVuSans-72" transform="translate(1409.134766 0)"/>
     <use xlink:href="#DejaVuSans-69" transform="translate(1450.248047 0)"/>
     <use xlink:href="#DejaVuSans-62" transform="translate(1478.03125 0)"/>
     <use xlink:href="#DejaVuSans-75" transform="translate(1541.507812 0)"/>
     <use xlink:href="#DejaVuSans-74" transform="translate(1604.886719 0)"/>
     <use xlink:href="#DejaVuSans-69" transform="translate(1644.095703 0)"/>
     <use xlink:href="#DejaVuSans-6f" transform="translate(1671.878906 0)"/>
     <use xlink:href="#DejaVuSans-6e" transform="translate(1733.060547 0)"/>
    </g>
   </g>
  </g>
 </g>
 <defs>
  <clipPath id="p4ca1df43cd">
   <rect x="53.226875" y="38.14175" width="792.16" height="341"/>
  </clipPath>
 </defs>
</svg>
