<?xml version="1.0" encoding="utf-8" standalone="no"?>
<!DOCTYPE svg PUBLIC "-//W3C//DTD SVG 1.1//EN"
  "http://www.w3.org/Graphics/SVG/1.1/DTD/svg11.dtd">
<svg xmlns:xlink="http://www.w3.org/1999/xlink" width="1068.5775pt" height="852.569634pt" viewBox="0 0 1068.5775 852.569634" xmlns="http://www.w3.org/2000/svg" version="1.1">
 <metadata>
  <rdf:RDF xmlns:dc="http://purl.org/dc/elements/1.1/" xmlns:cc="http://creativecommons.org/ns#" xmlns:rdf="http://www.w3.org/1999/02/22-rdf-syntax-ns#">
   <cc:Work>
    <dc:type rdf:resource="http://purl.org/dc/dcmitype/StillImage"/>
    <dc:date>2025-02-18T23:40:18.807329</dc:date>
    <dc:format>image/svg+xml</dc:format>
    <dc:creator>
     <cc:Agent>
      <dc:title>Matplotlib v3.10.0, https://matplotlib.org/</dc:title>
     </cc:Agent>
    </dc:creator>
   </cc:Work>
  </rdf:RDF>
 </metadata>
 <defs>
  <style type="text/css">*{stroke-linejoin: round; stroke-linecap: butt}</style>
 </defs>
 <g id="figure_1">
  <g id="patch_1">
   <path d="M 0 852.569634 
L 1068.5775 852.569634 
L 1068.5775 0 
L 0 0 
z
" style="fill: #ffffff"/>
  </g>
  <g id="axes_1">
   <g id="patch_2">
    <path d="M 48.8975 364.367351 
L 1061.3775 364.367351 
L 1061.3775 38.14175 
L 48.8975 38.14175 
z
" style="fill: #ffffff"/>
   </g>
   <g id="patch_3">
    <path d="M 94.919318 364.367351 
L 189.323048 364.367351 
L 189.323048 38.14175 
L 94.919318 38.14175 
z
" clip-path="url(#p7e6d170719)" style="fill: #4a7ab7"/>
   </g>
   <g id="patch_4">
    <path d="M 212.92398 364.367351 
L 307.32771 364.367351 
L 307.32771 105.561707 
L 212.92398 105.561707 
z
" clip-path="url(#p7e6d170719)" style="fill: #7fb6d6"/>
   </g>
   <g id="patch_5">
    <path d="M 330.928642 364.367351 
L 425.332372 364.367351 
L 425.332372 110.749601 
L 330.928642 110.749601 
z
" clip-path="url(#p7e6d170719)" style="fill: #bde2ee"/>
   </g>
   <g id="patch_6">
    <path d="M 448.933304 364.367351 
L 543.337034 364.367351 
L 543.337034 73.558512 
L 448.933304 73.558512 
z
" clip-path="url(#p7e6d170719)" style="fill: #edf8df"/>
   </g>
   <g id="patch_7">
    <path d="M 566.937966 364.367351 
L 661.341696 364.367351 
L 661.341696 68.705982 
L 566.937966 68.705982 
z
" clip-path="url(#p7e6d170719)" style="fill: #feeda4"/>
   </g>
   <g id="patch_8">
    <path d="M 684.942628 364.367351 
L 779.346358 364.367351 
L 779.346358 81.495201 
L 684.942628 81.495201 
z
" clip-path="url(#p7e6d170719)" style="fill: #fdbf71"/>
   </g>
   <g id="patch_9">
    <path d="M 802.94729 364.367351 
L 897.35102 364.367351 
L 897.35102 59.868848 
L 802.94729 59.868848 
z
" clip-path="url(#p7e6d170719)" style="fill: #f67a49"/>
   </g>
   <g id="patch_10">
    <path d="M 920.951952 364.367351 
L 1015.355682 364.367351 
L 1015.355682 79.688953 
L 920.951952 79.688953 
z
" clip-path="url(#p7e6d170719)" style="fill: #da362a"/>
   </g>
   <g id="matplotlib.axis_1">
    <g id="xtick_1">
     <g id="line2d_1">
      <path d="M 142.121183 364.367351 
L 142.121183 38.14175 
" clip-path="url(#p7e6d170719)" style="fill: none; stroke: #b0b0b0; stroke-opacity: 0.3; stroke-width: 0.8; stroke-linecap: square"/>
     </g>
     <g id="line2d_2">
      <defs>
       <path id="me9acf42533" d="M 0 0 
L 0 3.5 
" style="stroke: #000000; stroke-width: 0.8"/>
      </defs>
      <g>
       <use xlink:href="#me9acf42533" x="142.121183" y="364.367351" style="stroke: #000000; stroke-width: 0.8"/>
      </g>
     </g>
     <g id="text_1">
      <!-- 0-3 -->
      <g transform="translate(137.533165 391.67369) rotate(-45) scale(0.12 -0.12)">
       <defs>
        <path id="DejaVuSans-30" d="M 2034 4250 
Q 1547 4250 1301 3770 
Q 1056 3291 1056 2328 
Q 1056 1369 1301 889 
Q 1547 409 2034 409 
Q 2525 409 2770 889 
Q 3016 1369 3016 2328 
Q 3016 3291 2770 3770 
Q 2525 4250 2034 4250 
z
M 2034 4750 
Q 2819 4750 3233 4129 
Q 3647 3509 3647 2328 
Q 3647 1150 3233 529 
Q 2819 -91 2034 -91 
Q 1250 -91 836 529 
Q 422 1150 422 2328 
Q 422 3509 836 4129 
Q 1250 4750 2034 4750 
z
" transform="scale(0.015625)"/>
        <path id="DejaVuSans-2d" d="M 313 2009 
L 1997 2009 
L 1997 1497 
L 313 1497 
L 313 2009 
z
" transform="scale(0.015625)"/>
        <path id="DejaVuSans-33" d="M 2597 2516 
Q 3050 2419 3304 2112 
Q 3559 1806 3559 1356 
Q 3559 666 3084 287 
Q 2609 -91 1734 -91 
Q 1441 -91 1130 -33 
Q 819 25 488 141 
L 488 750 
Q 750 597 1062 519 
Q 1375 441 1716 441 
Q 2309 441 2620 675 
Q 2931 909 2931 1356 
Q 2931 1769 2642 2001 
Q 2353 2234 1838 2234 
L 1294 2234 
L 1294 2753 
L 1863 2753 
Q 2328 2753 2575 2939 
Q 2822 3125 2822 3475 
Q 2822 3834 2567 4026 
Q 2313 4219 1838 4219 
Q 1578 4219 1281 4162 
Q 984 4106 628 3988 
L 628 4550 
Q 988 4650 1302 4700 
Q 1616 4750 1894 4750 
Q 2613 4750 3031 4423 
Q 3450 4097 3450 3541 
Q 3450 3153 3228 2886 
Q 3006 2619 2597 2516 
z
" transform="scale(0.015625)"/>
       </defs>
       <use xlink:href="#DejaVuSans-30"/>
       <use xlink:href="#DejaVuSans-2d" transform="translate(63.623047 0)"/>
       <use xlink:href="#DejaVuSans-33" transform="translate(99.707031 0)"/>
      </g>
     </g>
    </g>
    <g id="xtick_2">
     <g id="line2d_3">
      <path d="M 260.125845 364.367351 
L 260.125845 38.14175 
" clip-path="url(#p7e6d170719)" style="fill: none; stroke: #b0b0b0; stroke-opacity: 0.3; stroke-width: 0.8; stroke-linecap: square"/>
     </g>
     <g id="line2d_4">
      <g>
       <use xlink:href="#me9acf42533" x="260.125845" y="364.367351" style="stroke: #000000; stroke-width: 0.8"/>
      </g>
     </g>
     <g id="text_2">
      <!-- 3-6 -->
      <g transform="translate(255.537827 391.67369) rotate(-45) scale(0.12 -0.12)">
       <defs>
        <path id="DejaVuSans-36" d="M 2113 2584 
Q 1688 2584 1439 2293 
Q 1191 2003 1191 1497 
Q 1191 994 1439 701 
Q 1688 409 2113 409 
Q 2538 409 2786 701 
Q 3034 994 3034 1497 
Q 3034 2003 2786 2293 
Q 2538 2584 2113 2584 
z
M 3366 4563 
L 3366 3988 
Q 3128 4100 2886 4159 
Q 2644 4219 2406 4219 
Q 1781 4219 1451 3797 
Q 1122 3375 1075 2522 
Q 1259 2794 1537 2939 
Q 1816 3084 2150 3084 
Q 2853 3084 3261 2657 
Q 3669 2231 3669 1497 
Q 3669 778 3244 343 
Q 2819 -91 2113 -91 
Q 1303 -91 875 529 
Q 447 1150 447 2328 
Q 447 3434 972 4092 
Q 1497 4750 2381 4750 
Q 2619 4750 2861 4703 
Q 3103 4656 3366 4563 
z
" transform="scale(0.015625)"/>
       </defs>
       <use xlink:href="#DejaVuSans-33"/>
       <use xlink:href="#DejaVuSans-2d" transform="translate(63.623047 0)"/>
       <use xlink:href="#DejaVuSans-36" transform="translate(99.707031 0)"/>
      </g>
     </g>
    </g>
    <g id="xtick_3">
     <g id="line2d_5">
      <path d="M 378.130507 364.367351 
L 378.130507 38.14175 
" clip-path="url(#p7e6d170719)" style="fill: none; stroke: #b0b0b0; stroke-opacity: 0.3; stroke-width: 0.8; stroke-linecap: square"/>
     </g>
     <g id="line2d_6">
      <g>
       <use xlink:href="#me9acf42533" x="378.130507" y="364.367351" style="stroke: #000000; stroke-width: 0.8"/>
      </g>
     </g>
     <g id="text_3">
      <!-- 6-9 -->
      <g transform="translate(373.542489 391.67369) rotate(-45) scale(0.12 -0.12)">
       <defs>
        <path id="DejaVuSans-39" d="M 703 97 
L 703 672 
Q 941 559 1184 500 
Q 1428 441 1663 441 
Q 2288 441 2617 861 
Q 2947 1281 2994 2138 
Q 2813 1869 2534 1725 
Q 2256 1581 1919 1581 
Q 1219 1581 811 2004 
Q 403 2428 403 3163 
Q 403 3881 828 4315 
Q 1253 4750 1959 4750 
Q 2769 4750 3195 4129 
Q 3622 3509 3622 2328 
Q 3622 1225 3098 567 
Q 2575 -91 1691 -91 
Q 1453 -91 1209 -44 
Q 966 3 703 97 
z
M 1959 2075 
Q 2384 2075 2632 2365 
Q 2881 2656 2881 3163 
Q 2881 3666 2632 3958 
Q 2384 4250 1959 4250 
Q 1534 4250 1286 3958 
Q 1038 3666 1038 3163 
Q 1038 2656 1286 2365 
Q 1534 2075 1959 2075 
z
" transform="scale(0.015625)"/>
       </defs>
       <use xlink:href="#DejaVuSans-36"/>
       <use xlink:href="#DejaVuSans-2d" transform="translate(63.623047 0)"/>
       <use xlink:href="#DejaVuSans-39" transform="translate(99.707031 0)"/>
      </g>
     </g>
    </g>
    <g id="xtick_4">
     <g id="line2d_7">
      <path d="M 496.135169 364.367351 
L 496.135169 38.14175 
" clip-path="url(#p7e6d170719)" style="fill: none; stroke: #b0b0b0; stroke-opacity: 0.3; stroke-width: 0.8; stroke-linecap: square"/>
     </g>
     <g id="line2d_8">
      <g>
       <use xlink:href="#me9acf42533" x="496.135169" y="364.367351" style="stroke: #000000; stroke-width: 0.8"/>
      </g>
     </g>
     <g id="text_4">
      <!-- 9-12 -->
      <g transform="translate(488.847771 397.07245) rotate(-45) scale(0.12 -0.12)">
       <defs>
        <path id="DejaVuSans-31" d="M 794 531 
L 1825 531 
L 1825 4091 
L 703 3866 
L 703 4441 
L 1819 4666 
L 2450 4666 
L 2450 531 
L 3481 531 
L 3481 0 
L 794 0 
L 794 531 
z
" transform="scale(0.015625)"/>
        <path id="DejaVuSans-32" d="M 1228 531 
L 3431 531 
L 3431 0 
L 469 0 
L 469 531 
Q 828 903 1448 1529 
Q 2069 2156 2228 2338 
Q 2531 2678 2651 2914 
Q 2772 3150 2772 3378 
Q 2772 3750 2511 3984 
Q 2250 4219 1831 4219 
Q 1534 4219 1204 4116 
Q 875 4013 500 3803 
L 500 4441 
Q 881 4594 1212 4672 
Q 1544 4750 1819 4750 
Q 2544 4750 2975 4387 
Q 3406 4025 3406 3419 
Q 3406 3131 3298 2873 
Q 3191 2616 2906 2266 
Q 2828 2175 2409 1742 
Q 1991 1309 1228 531 
z
" transform="scale(0.015625)"/>
       </defs>
       <use xlink:href="#DejaVuSans-39"/>
       <use xlink:href="#DejaVuSans-2d" transform="translate(63.623047 0)"/>
       <use xlink:href="#DejaVuSans-31" transform="translate(99.707031 0)"/>
       <use xlink:href="#DejaVuSans-32" transform="translate(163.330078 0)"/>
      </g>
     </g>
    </g>
    <g id="xtick_5">
     <g id="line2d_9">
      <path d="M 614.139831 364.367351 
L 614.139831 38.14175 
" clip-path="url(#p7e6d170719)" style="fill: none; stroke: #b0b0b0; stroke-opacity: 0.3; stroke-width: 0.8; stroke-linecap: square"/>
     </g>
     <g id="line2d_10">
      <g>
       <use xlink:href="#me9acf42533" x="614.139831" y="364.367351" style="stroke: #000000; stroke-width: 0.8"/>
      </g>
     </g>
     <g id="text_5">
      <!-- 12-15 -->
      <g transform="translate(604.153053 402.47121) rotate(-45) scale(0.12 -0.12)">
       <defs>
        <path id="DejaVuSans-35" d="M 691 4666 
L 3169 4666 
L 3169 4134 
L 1269 4134 
L 1269 2991 
Q 1406 3038 1543 3061 
Q 1681 3084 1819 3084 
Q 2600 3084 3056 2656 
Q 3513 2228 3513 1497 
Q 3513 744 3044 326 
Q 2575 -91 1722 -91 
Q 1428 -91 1123 -41 
Q 819 9 494 109 
L 494 744 
Q 775 591 1075 516 
Q 1375 441 1709 441 
Q 2250 441 2565 725 
Q 2881 1009 2881 1497 
Q 2881 1984 2565 2268 
Q 2250 2553 1709 2553 
Q 1456 2553 1204 2497 
Q 953 2441 691 2322 
L 691 4666 
z
" transform="scale(0.015625)"/>
       </defs>
       <use xlink:href="#DejaVuSans-31"/>
       <use xlink:href="#DejaVuSans-32" transform="translate(63.623047 0)"/>
       <use xlink:href="#DejaVuSans-2d" transform="translate(127.246094 0)"/>
       <use xlink:href="#DejaVuSans-31" transform="translate(163.330078 0)"/>
       <use xlink:href="#DejaVuSans-35" transform="translate(226.953125 0)"/>
      </g>
     </g>
    </g>
    <g id="xtick_6">
     <g id="line2d_11">
      <path d="M 732.144493 364.367351 
L 732.144493 38.14175 
" clip-path="url(#p7e6d170719)" style="fill: none; stroke: #b0b0b0; stroke-opacity: 0.3; stroke-width: 0.8; stroke-linecap: square"/>
     </g>
     <g id="line2d_12">
      <g>
       <use xlink:href="#me9acf42533" x="732.144493" y="364.367351" style="stroke: #000000; stroke-width: 0.8"/>
      </g>
     </g>
     <g id="text_6">
      <!-- 15-20 -->
      <g transform="translate(722.157715 402.47121) rotate(-45) scale(0.12 -0.12)">
       <use xlink:href="#DejaVuSans-31"/>
       <use xlink:href="#DejaVuSans-35" transform="translate(63.623047 0)"/>
       <use xlink:href="#DejaVuSans-2d" transform="translate(127.246094 0)"/>
       <use xlink:href="#DejaVuSans-32" transform="translate(163.330078 0)"/>
       <use xlink:href="#DejaVuSans-30" transform="translate(226.953125 0)"/>
      </g>
     </g>
    </g>
    <g id="xtick_7">
     <g id="line2d_13">
      <path d="M 850.149155 364.367351 
L 850.149155 38.14175 
" clip-path="url(#p7e6d170719)" style="fill: none; stroke: #b0b0b0; stroke-opacity: 0.3; stroke-width: 0.8; stroke-linecap: square"/>
     </g>
     <g id="line2d_14">
      <g>
       <use xlink:href="#me9acf42533" x="850.149155" y="364.367351" style="stroke: #000000; stroke-width: 0.8"/>
      </g>
     </g>
     <g id="text_7">
      <!-- 20-25 -->
      <g transform="translate(840.162377 402.47121) rotate(-45) scale(0.12 -0.12)">
       <use xlink:href="#DejaVuSans-32"/>
       <use xlink:href="#DejaVuSans-30" transform="translate(63.623047 0)"/>
       <use xlink:href="#DejaVuSans-2d" transform="translate(127.246094 0)"/>
       <use xlink:href="#DejaVuSans-32" transform="translate(163.330078 0)"/>
       <use xlink:href="#DejaVuSans-35" transform="translate(226.953125 0)"/>
      </g>
     </g>
    </g>
    <g id="xtick_8">
     <g id="line2d_15">
      <path d="M 968.153817 364.367351 
L 968.153817 38.14175 
" clip-path="url(#p7e6d170719)" style="fill: none; stroke: #b0b0b0; stroke-opacity: 0.3; stroke-width: 0.8; stroke-linecap: square"/>
     </g>
     <g id="line2d_16">
      <g>
       <use xlink:href="#me9acf42533" x="968.153817" y="364.367351" style="stroke: #000000; stroke-width: 0.8"/>
      </g>
     </g>
     <g id="text_8">
      <!-- 25-30 -->
      <g transform="translate(958.167039 402.47121) rotate(-45) scale(0.12 -0.12)">
       <use xlink:href="#DejaVuSans-32"/>
       <use xlink:href="#DejaVuSans-35" transform="translate(63.623047 0)"/>
       <use xlink:href="#DejaVuSans-2d" transform="translate(127.246094 0)"/>
       <use xlink:href="#DejaVuSans-33" transform="translate(163.330078 0)"/>
       <use xlink:href="#DejaVuSans-30" transform="translate(226.953125 0)"/>
      </g>
     </g>
    </g>
    <g id="text_9">
     <!-- ARM Function Set Size (Instructions) -->
     <g transform="translate(446.453125 417.354009) scale(0.12 -0.12)">
      <defs>
       <path id="DejaVuSans-41" d="M 2188 4044 
L 1331 1722 
L 3047 1722 
L 2188 4044 
z
M 1831 4666 
L 2547 4666 
L 4325 0 
L 3669 0 
L 3244 1197 
L 1141 1197 
L 716 0 
L 50 0 
L 1831 4666 
z
" transform="scale(0.015625)"/>
       <path id="DejaVuSans-52" d="M 2841 2188 
Q 3044 2119 3236 1894 
Q 3428 1669 3622 1275 
L 4263 0 
L 3584 0 
L 2988 1197 
Q 2756 1666 2539 1819 
Q 2322 1972 1947 1972 
L 1259 1972 
L 1259 0 
L 628 0 
L 628 4666 
L 2053 4666 
Q 2853 4666 3247 4331 
Q 3641 3997 3641 3322 
Q 3641 2881 3436 2590 
Q 3231 2300 2841 2188 
z
M 1259 4147 
L 1259 2491 
L 2053 2491 
Q 2509 2491 2742 2702 
Q 2975 2913 2975 3322 
Q 2975 3731 2742 3939 
Q 2509 4147 2053 4147 
L 1259 4147 
z
" transform="scale(0.015625)"/>
       <path id="DejaVuSans-4d" d="M 628 4666 
L 1569 4666 
L 2759 1491 
L 3956 4666 
L 4897 4666 
L 4897 0 
L 4281 0 
L 4281 4097 
L 3078 897 
L 2444 897 
L 1241 4097 
L 1241 0 
L 628 0 
L 628 4666 
z
" transform="scale(0.015625)"/>
       <path id="DejaVuSans-20" transform="scale(0.015625)"/>
       <path id="DejaVuSans-46" d="M 628 4666 
L 3309 4666 
L 3309 4134 
L 1259 4134 
L 1259 2759 
L 3109 2759 
L 3109 2228 
L 1259 2228 
L 1259 0 
L 628 0 
L 628 4666 
z
" transform="scale(0.015625)"/>
       <path id="DejaVuSans-75" d="M 544 1381 
L 544 3500 
L 1119 3500 
L 1119 1403 
Q 1119 906 1312 657 
Q 1506 409 1894 409 
Q 2359 409 2629 706 
Q 2900 1003 2900 1516 
L 2900 3500 
L 3475 3500 
L 3475 0 
L 2900 0 
L 2900 538 
Q 2691 219 2414 64 
Q 2138 -91 1772 -91 
Q 1169 -91 856 284 
Q 544 659 544 1381 
z
M 1991 3584 
L 1991 3584 
z
" transform="scale(0.015625)"/>
       <path id="DejaVuSans-6e" d="M 3513 2113 
L 3513 0 
L 2938 0 
L 2938 2094 
Q 2938 2591 2744 2837 
Q 2550 3084 2163 3084 
Q 1697 3084 1428 2787 
Q 1159 2491 1159 1978 
L 1159 0 
L 581 0 
L 581 3500 
L 1159 3500 
L 1159 2956 
Q 1366 3272 1645 3428 
Q 1925 3584 2291 3584 
Q 2894 3584 3203 3211 
Q 3513 2838 3513 2113 
z
" transform="scale(0.015625)"/>
       <path id="DejaVuSans-63" d="M 3122 3366 
L 3122 2828 
Q 2878 2963 2633 3030 
Q 2388 3097 2138 3097 
Q 1578 3097 1268 2742 
Q 959 2388 959 1747 
Q 959 1106 1268 751 
Q 1578 397 2138 397 
Q 2388 397 2633 464 
Q 2878 531 3122 666 
L 3122 134 
Q 2881 22 2623 -34 
Q 2366 -91 2075 -91 
Q 1284 -91 818 406 
Q 353 903 353 1747 
Q 353 2603 823 3093 
Q 1294 3584 2113 3584 
Q 2378 3584 2631 3529 
Q 2884 3475 3122 3366 
z
" transform="scale(0.015625)"/>
       <path id="DejaVuSans-74" d="M 1172 4494 
L 1172 3500 
L 2356 3500 
L 2356 3053 
L 1172 3053 
L 1172 1153 
Q 1172 725 1289 603 
Q 1406 481 1766 481 
L 2356 481 
L 2356 0 
L 1766 0 
Q 1100 0 847 248 
Q 594 497 594 1153 
L 594 3053 
L 172 3053 
L 172 3500 
L 594 3500 
L 594 4494 
L 1172 4494 
z
" transform="scale(0.015625)"/>
       <path id="DejaVuSans-69" d="M 603 3500 
L 1178 3500 
L 1178 0 
L 603 0 
L 603 3500 
z
M 603 4863 
L 1178 4863 
L 1178 4134 
L 603 4134 
L 603 4863 
z
" transform="scale(0.015625)"/>
       <path id="DejaVuSans-6f" d="M 1959 3097 
Q 1497 3097 1228 2736 
Q 959 2375 959 1747 
Q 959 1119 1226 758 
Q 1494 397 1959 397 
Q 2419 397 2687 759 
Q 2956 1122 2956 1747 
Q 2956 2369 2687 2733 
Q 2419 3097 1959 3097 
z
M 1959 3584 
Q 2709 3584 3137 3096 
Q 3566 2609 3566 1747 
Q 3566 888 3137 398 
Q 2709 -91 1959 -91 
Q 1206 -91 779 398 
Q 353 888 353 1747 
Q 353 2609 779 3096 
Q 1206 3584 1959 3584 
z
" transform="scale(0.015625)"/>
       <path id="DejaVuSans-53" d="M 3425 4513 
L 3425 3897 
Q 3066 4069 2747 4153 
Q 2428 4238 2131 4238 
Q 1616 4238 1336 4038 
Q 1056 3838 1056 3469 
Q 1056 3159 1242 3001 
Q 1428 2844 1947 2747 
L 2328 2669 
Q 3034 2534 3370 2195 
Q 3706 1856 3706 1288 
Q 3706 609 3251 259 
Q 2797 -91 1919 -91 
Q 1588 -91 1214 -16 
Q 841 59 441 206 
L 441 856 
Q 825 641 1194 531 
Q 1563 422 1919 422 
Q 2459 422 2753 634 
Q 3047 847 3047 1241 
Q 3047 1584 2836 1778 
Q 2625 1972 2144 2069 
L 1759 2144 
Q 1053 2284 737 2584 
Q 422 2884 422 3419 
Q 422 4038 858 4394 
Q 1294 4750 2059 4750 
Q 2388 4750 2728 4690 
Q 3069 4631 3425 4513 
z
" transform="scale(0.015625)"/>
       <path id="DejaVuSans-65" d="M 3597 1894 
L 3597 1613 
L 953 1613 
Q 991 1019 1311 708 
Q 1631 397 2203 397 
Q 2534 397 2845 478 
Q 3156 559 3463 722 
L 3463 178 
Q 3153 47 2828 -22 
Q 2503 -91 2169 -91 
Q 1331 -91 842 396 
Q 353 884 353 1716 
Q 353 2575 817 3079 
Q 1281 3584 2069 3584 
Q 2775 3584 3186 3129 
Q 3597 2675 3597 1894 
z
M 3022 2063 
Q 3016 2534 2758 2815 
Q 2500 3097 2075 3097 
Q 1594 3097 1305 2825 
Q 1016 2553 972 2059 
L 3022 2063 
z
" transform="scale(0.015625)"/>
       <path id="DejaVuSans-7a" d="M 353 3500 
L 3084 3500 
L 3084 2975 
L 922 459 
L 3084 459 
L 3084 0 
L 275 0 
L 275 525 
L 2438 3041 
L 353 3041 
L 353 3500 
z
" transform="scale(0.015625)"/>
       <path id="DejaVuSans-28" d="M 1984 4856 
Q 1566 4138 1362 3434 
Q 1159 2731 1159 2009 
Q 1159 1288 1364 580 
Q 1569 -128 1984 -844 
L 1484 -844 
Q 1016 -109 783 600 
Q 550 1309 550 2009 
Q 550 2706 781 3412 
Q 1013 4119 1484 4856 
L 1984 4856 
z
" transform="scale(0.015625)"/>
       <path id="DejaVuSans-49" d="M 628 4666 
L 1259 4666 
L 1259 0 
L 628 0 
L 628 4666 
z
" transform="scale(0.015625)"/>
       <path id="DejaVuSans-73" d="M 2834 3397 
L 2834 2853 
Q 2591 2978 2328 3040 
Q 2066 3103 1784 3103 
Q 1356 3103 1142 2972 
Q 928 2841 928 2578 
Q 928 2378 1081 2264 
Q 1234 2150 1697 2047 
L 1894 2003 
Q 2506 1872 2764 1633 
Q 3022 1394 3022 966 
Q 3022 478 2636 193 
Q 2250 -91 1575 -91 
Q 1294 -91 989 -36 
Q 684 19 347 128 
L 347 722 
Q 666 556 975 473 
Q 1284 391 1588 391 
Q 1994 391 2212 530 
Q 2431 669 2431 922 
Q 2431 1156 2273 1281 
Q 2116 1406 1581 1522 
L 1381 1569 
Q 847 1681 609 1914 
Q 372 2147 372 2553 
Q 372 3047 722 3315 
Q 1072 3584 1716 3584 
Q 2034 3584 2315 3537 
Q 2597 3491 2834 3397 
z
" transform="scale(0.015625)"/>
       <path id="DejaVuSans-72" d="M 2631 2963 
Q 2534 3019 2420 3045 
Q 2306 3072 2169 3072 
Q 1681 3072 1420 2755 
Q 1159 2438 1159 1844 
L 1159 0 
L 581 0 
L 581 3500 
L 1159 3500 
L 1159 2956 
Q 1341 3275 1631 3429 
Q 1922 3584 2338 3584 
Q 2397 3584 2469 3576 
Q 2541 3569 2628 3553 
L 2631 2963 
z
" transform="scale(0.015625)"/>
       <path id="DejaVuSans-29" d="M 513 4856 
L 1013 4856 
Q 1481 4119 1714 3412 
Q 1947 2706 1947 2009 
Q 1947 1309 1714 600 
Q 1481 -109 1013 -844 
L 513 -844 
Q 928 -128 1133 580 
Q 1338 1288 1338 2009 
Q 1338 2731 1133 3434 
Q 928 4138 513 4856 
z
" transform="scale(0.015625)"/>
      </defs>
      <use xlink:href="#DejaVuSans-41"/>
      <use xlink:href="#DejaVuSans-52" transform="translate(68.408203 0)"/>
      <use xlink:href="#DejaVuSans-4d" transform="translate(137.890625 0)"/>
      <use xlink:href="#DejaVuSans-20" transform="translate(224.169922 0)"/>
      <use xlink:href="#DejaVuSans-46" transform="translate(255.957031 0)"/>
      <use xlink:href="#DejaVuSans-75" transform="translate(307.976562 0)"/>
      <use xlink:href="#DejaVuSans-6e" transform="translate(371.355469 0)"/>
      <use xlink:href="#DejaVuSans-63" transform="translate(434.734375 0)"/>
      <use xlink:href="#DejaVuSans-74" transform="translate(489.714844 0)"/>
      <use xlink:href="#DejaVuSans-69" transform="translate(528.923828 0)"/>
      <use xlink:href="#DejaVuSans-6f" transform="translate(556.707031 0)"/>
      <use xlink:href="#DejaVuSans-6e" transform="translate(617.888672 0)"/>
      <use xlink:href="#DejaVuSans-20" transform="translate(681.267578 0)"/>
      <use xlink:href="#DejaVuSans-53" transform="translate(713.054688 0)"/>
      <use xlink:href="#DejaVuSans-65" transform="translate(776.53125 0)"/>
      <use xlink:href="#DejaVuSans-74" transform="translate(838.054688 0)"/>
      <use xlink:href="#DejaVuSans-20" transform="translate(877.263672 0)"/>
      <use xlink:href="#DejaVuSans-53" transform="translate(909.050781 0)"/>
      <use xlink:href="#DejaVuSans-69" transform="translate(972.527344 0)"/>
      <use xlink:href="#DejaVuSans-7a" transform="translate(1000.310547 0)"/>
      <use xlink:href="#DejaVuSans-65" transform="translate(1052.800781 0)"/>
      <use xlink:href="#DejaVuSans-20" transform="translate(1114.324219 0)"/>
      <use xlink:href="#DejaVuSans-28" transform="translate(1146.111328 0)"/>
      <use xlink:href="#DejaVuSans-49" transform="translate(1185.125 0)"/>
      <use xlink:href="#DejaVuSans-6e" transform="translate(1214.617188 0)"/>
      <use xlink:href="#DejaVuSans-73" transform="translate(1277.996094 0)"/>
      <use xlink:href="#DejaVuSans-74" transform="translate(1330.095703 0)"/>
      <use xlink:href="#DejaVuSans-72" transform="translate(1369.304688 0)"/>
      <use xlink:href="#DejaVuSans-75" transform="translate(1410.417969 0)"/>
      <use xlink:href="#DejaVuSans-63" transform="translate(1473.796875 0)"/>
      <use xlink:href="#DejaVuSans-74" transform="translate(1528.777344 0)"/>
      <use xlink:href="#DejaVuSans-69" transform="translate(1567.986328 0)"/>
      <use xlink:href="#DejaVuSans-6f" transform="translate(1595.769531 0)"/>
      <use xlink:href="#DejaVuSans-6e" transform="translate(1656.951172 0)"/>
      <use xlink:href="#DejaVuSans-73" transform="translate(1720.330078 0)"/>
      <use xlink:href="#DejaVuSans-29" transform="translate(1772.429688 0)"/>
     </g>
    </g>
   </g>
   <g id="matplotlib.axis_2">
    <g id="ytick_1">
     <g id="line2d_17">
      <path d="M 48.8975 364.367351 
L 1061.3775 364.367351 
" clip-path="url(#p7e6d170719)" style="fill: none; stroke: #b0b0b0; stroke-opacity: 0.3; stroke-width: 0.8; stroke-linecap: square"/>
     </g>
     <g id="line2d_18">
      <defs>
       <path id="mf6de18ff98" d="M 0 0 
L -3.5 0 
" style="stroke: #000000; stroke-width: 0.8"/>
      </defs>
      <g>
       <use xlink:href="#mf6de18ff98" x="48.8975" y="364.367351" style="stroke: #000000; stroke-width: 0.8"/>
      </g>
     </g>
     <g id="text_10">
      <!-- 0.0 -->
      <g transform="translate(22.81375 368.926413) scale(0.12 -0.12)">
       <defs>
        <path id="DejaVuSans-2e" d="M 684 794 
L 1344 794 
L 1344 0 
L 684 0 
L 684 794 
z
" transform="scale(0.015625)"/>
       </defs>
       <use xlink:href="#DejaVuSans-30"/>
       <use xlink:href="#DejaVuSans-2e" transform="translate(63.623047 0)"/>
       <use xlink:href="#DejaVuSans-30" transform="translate(95.410156 0)"/>
      </g>
     </g>
    </g>
    <g id="ytick_2">
     <g id="line2d_19">
      <path d="M 48.8975 299.122231 
L 1061.3775 299.122231 
" clip-path="url(#p7e6d170719)" style="fill: none; stroke: #b0b0b0; stroke-opacity: 0.3; stroke-width: 0.8; stroke-linecap: square"/>
     </g>
     <g id="line2d_20">
      <g>
       <use xlink:href="#mf6de18ff98" x="48.8975" y="299.122231" style="stroke: #000000; stroke-width: 0.8"/>
      </g>
     </g>
     <g id="text_11">
      <!-- 0.2 -->
      <g transform="translate(22.81375 303.681293) scale(0.12 -0.12)">
       <use xlink:href="#DejaVuSans-30"/>
       <use xlink:href="#DejaVuSans-2e" transform="translate(63.623047 0)"/>
       <use xlink:href="#DejaVuSans-32" transform="translate(95.410156 0)"/>
      </g>
     </g>
    </g>
    <g id="ytick_3">
     <g id="line2d_21">
      <path d="M 48.8975 233.87711 
L 1061.3775 233.87711 
" clip-path="url(#p7e6d170719)" style="fill: none; stroke: #b0b0b0; stroke-opacity: 0.3; stroke-width: 0.8; stroke-linecap: square"/>
     </g>
     <g id="line2d_22">
      <g>
       <use xlink:href="#mf6de18ff98" x="48.8975" y="233.87711" style="stroke: #000000; stroke-width: 0.8"/>
      </g>
     </g>
     <g id="text_12">
      <!-- 0.4 -->
      <g transform="translate(22.81375 238.436173) scale(0.12 -0.12)">
       <defs>
        <path id="DejaVuSans-34" d="M 2419 4116 
L 825 1625 
L 2419 1625 
L 2419 4116 
z
M 2253 4666 
L 3047 4666 
L 3047 1625 
L 3713 1625 
L 3713 1100 
L 3047 1100 
L 3047 0 
L 2419 0 
L 2419 1100 
L 313 1100 
L 313 1709 
L 2253 4666 
z
" transform="scale(0.015625)"/>
       </defs>
       <use xlink:href="#DejaVuSans-30"/>
       <use xlink:href="#DejaVuSans-2e" transform="translate(63.623047 0)"/>
       <use xlink:href="#DejaVuSans-34" transform="translate(95.410156 0)"/>
      </g>
     </g>
    </g>
    <g id="ytick_4">
     <g id="line2d_23">
      <path d="M 48.8975 168.63199 
L 1061.3775 168.63199 
" clip-path="url(#p7e6d170719)" style="fill: none; stroke: #b0b0b0; stroke-opacity: 0.3; stroke-width: 0.8; stroke-linecap: square"/>
     </g>
     <g id="line2d_24">
      <g>
       <use xlink:href="#mf6de18ff98" x="48.8975" y="168.63199" style="stroke: #000000; stroke-width: 0.8"/>
      </g>
     </g>
     <g id="text_13">
      <!-- 0.6 -->
      <g transform="translate(22.81375 173.191053) scale(0.12 -0.12)">
       <use xlink:href="#DejaVuSans-30"/>
       <use xlink:href="#DejaVuSans-2e" transform="translate(63.623047 0)"/>
       <use xlink:href="#DejaVuSans-36" transform="translate(95.410156 0)"/>
      </g>
     </g>
    </g>
    <g id="ytick_5">
     <g id="line2d_25">
      <path d="M 48.8975 103.38687 
L 1061.3775 103.38687 
" clip-path="url(#p7e6d170719)" style="fill: none; stroke: #b0b0b0; stroke-opacity: 0.3; stroke-width: 0.8; stroke-linecap: square"/>
     </g>
     <g id="line2d_26">
      <g>
       <use xlink:href="#mf6de18ff98" x="48.8975" y="103.38687" style="stroke: #000000; stroke-width: 0.8"/>
      </g>
     </g>
     <g id="text_14">
      <!-- 0.8 -->
      <g transform="translate(22.81375 107.945933) scale(0.12 -0.12)">
       <defs>
        <path id="DejaVuSans-38" d="M 2034 2216 
Q 1584 2216 1326 1975 
Q 1069 1734 1069 1313 
Q 1069 891 1326 650 
Q 1584 409 2034 409 
Q 2484 409 2743 651 
Q 3003 894 3003 1313 
Q 3003 1734 2745 1975 
Q 2488 2216 2034 2216 
z
M 1403 2484 
Q 997 2584 770 2862 
Q 544 3141 544 3541 
Q 544 4100 942 4425 
Q 1341 4750 2034 4750 
Q 2731 4750 3128 4425 
Q 3525 4100 3525 3541 
Q 3525 3141 3298 2862 
Q 3072 2584 2669 2484 
Q 3125 2378 3379 2068 
Q 3634 1759 3634 1313 
Q 3634 634 3220 271 
Q 2806 -91 2034 -91 
Q 1263 -91 848 271 
Q 434 634 434 1313 
Q 434 1759 690 2068 
Q 947 2378 1403 2484 
z
M 1172 3481 
Q 1172 3119 1398 2916 
Q 1625 2713 2034 2713 
Q 2441 2713 2670 2916 
Q 2900 3119 2900 3481 
Q 2900 3844 2670 4047 
Q 2441 4250 2034 4250 
Q 1625 4250 1398 4047 
Q 1172 3844 1172 3481 
z
" transform="scale(0.015625)"/>
       </defs>
       <use xlink:href="#DejaVuSans-30"/>
       <use xlink:href="#DejaVuSans-2e" transform="translate(63.623047 0)"/>
       <use xlink:href="#DejaVuSans-38" transform="translate(95.410156 0)"/>
      </g>
     </g>
    </g>
    <g id="ytick_6">
     <g id="line2d_27">
      <path d="M 48.8975 38.14175 
L 1061.3775 38.14175 
" clip-path="url(#p7e6d170719)" style="fill: none; stroke: #b0b0b0; stroke-opacity: 0.3; stroke-width: 0.8; stroke-linecap: square"/>
     </g>
     <g id="line2d_28">
      <g>
       <use xlink:href="#mf6de18ff98" x="48.8975" y="38.14175" style="stroke: #000000; stroke-width: 0.8"/>
      </g>
     </g>
     <g id="text_15">
      <!-- 1.0 -->
      <g transform="translate(22.81375 42.700812) scale(0.12 -0.12)">
       <use xlink:href="#DejaVuSans-31"/>
       <use xlink:href="#DejaVuSans-2e" transform="translate(63.623047 0)"/>
       <use xlink:href="#DejaVuSans-30" transform="translate(95.410156 0)"/>
      </g>
     </g>
    </g>
    <g id="text_16">
     <!-- Average Similarity Score -->
     <g transform="translate(16.318125 274.8783) rotate(-90) scale(0.12 -0.12)">
      <defs>
       <path id="DejaVuSans-76" d="M 191 3500 
L 800 3500 
L 1894 563 
L 2988 3500 
L 3597 3500 
L 2284 0 
L 1503 0 
L 191 3500 
z
" transform="scale(0.015625)"/>
       <path id="DejaVuSans-61" d="M 2194 1759 
Q 1497 1759 1228 1600 
Q 959 1441 959 1056 
Q 959 750 1161 570 
Q 1363 391 1709 391 
Q 2188 391 2477 730 
Q 2766 1069 2766 1631 
L 2766 1759 
L 2194 1759 
z
M 3341 1997 
L 3341 0 
L 2766 0 
L 2766 531 
Q 2569 213 2275 61 
Q 1981 -91 1556 -91 
Q 1019 -91 701 211 
Q 384 513 384 1019 
Q 384 1609 779 1909 
Q 1175 2209 1959 2209 
L 2766 2209 
L 2766 2266 
Q 2766 2663 2505 2880 
Q 2244 3097 1772 3097 
Q 1472 3097 1187 3025 
Q 903 2953 641 2809 
L 641 3341 
Q 956 3463 1253 3523 
Q 1550 3584 1831 3584 
Q 2591 3584 2966 3190 
Q 3341 2797 3341 1997 
z
" transform="scale(0.015625)"/>
       <path id="DejaVuSans-67" d="M 2906 1791 
Q 2906 2416 2648 2759 
Q 2391 3103 1925 3103 
Q 1463 3103 1205 2759 
Q 947 2416 947 1791 
Q 947 1169 1205 825 
Q 1463 481 1925 481 
Q 2391 481 2648 825 
Q 2906 1169 2906 1791 
z
M 3481 434 
Q 3481 -459 3084 -895 
Q 2688 -1331 1869 -1331 
Q 1566 -1331 1297 -1286 
Q 1028 -1241 775 -1147 
L 775 -588 
Q 1028 -725 1275 -790 
Q 1522 -856 1778 -856 
Q 2344 -856 2625 -561 
Q 2906 -266 2906 331 
L 2906 616 
Q 2728 306 2450 153 
Q 2172 0 1784 0 
Q 1141 0 747 490 
Q 353 981 353 1791 
Q 353 2603 747 3093 
Q 1141 3584 1784 3584 
Q 2172 3584 2450 3431 
Q 2728 3278 2906 2969 
L 2906 3500 
L 3481 3500 
L 3481 434 
z
" transform="scale(0.015625)"/>
       <path id="DejaVuSans-6d" d="M 3328 2828 
Q 3544 3216 3844 3400 
Q 4144 3584 4550 3584 
Q 5097 3584 5394 3201 
Q 5691 2819 5691 2113 
L 5691 0 
L 5113 0 
L 5113 2094 
Q 5113 2597 4934 2840 
Q 4756 3084 4391 3084 
Q 3944 3084 3684 2787 
Q 3425 2491 3425 1978 
L 3425 0 
L 2847 0 
L 2847 2094 
Q 2847 2600 2669 2842 
Q 2491 3084 2119 3084 
Q 1678 3084 1418 2786 
Q 1159 2488 1159 1978 
L 1159 0 
L 581 0 
L 581 3500 
L 1159 3500 
L 1159 2956 
Q 1356 3278 1631 3431 
Q 1906 3584 2284 3584 
Q 2666 3584 2933 3390 
Q 3200 3197 3328 2828 
z
" transform="scale(0.015625)"/>
       <path id="DejaVuSans-6c" d="M 603 4863 
L 1178 4863 
L 1178 0 
L 603 0 
L 603 4863 
z
" transform="scale(0.015625)"/>
       <path id="DejaVuSans-79" d="M 2059 -325 
Q 1816 -950 1584 -1140 
Q 1353 -1331 966 -1331 
L 506 -1331 
L 506 -850 
L 844 -850 
Q 1081 -850 1212 -737 
Q 1344 -625 1503 -206 
L 1606 56 
L 191 3500 
L 800 3500 
L 1894 763 
L 2988 3500 
L 3597 3500 
L 2059 -325 
z
" transform="scale(0.015625)"/>
      </defs>
      <use xlink:href="#DejaVuSans-41"/>
      <use xlink:href="#DejaVuSans-76" transform="translate(62.533203 0)"/>
      <use xlink:href="#DejaVuSans-65" transform="translate(121.712891 0)"/>
      <use xlink:href="#DejaVuSans-72" transform="translate(183.236328 0)"/>
      <use xlink:href="#DejaVuSans-61" transform="translate(224.349609 0)"/>
      <use xlink:href="#DejaVuSans-67" transform="translate(285.628906 0)"/>
      <use xlink:href="#DejaVuSans-65" transform="translate(349.105469 0)"/>
      <use xlink:href="#DejaVuSans-20" transform="translate(410.628906 0)"/>
      <use xlink:href="#DejaVuSans-53" transform="translate(442.416016 0)"/>
      <use xlink:href="#DejaVuSans-69" transform="translate(505.892578 0)"/>
      <use xlink:href="#DejaVuSans-6d" transform="translate(533.675781 0)"/>
      <use xlink:href="#DejaVuSans-69" transform="translate(631.087891 0)"/>
      <use xlink:href="#DejaVuSans-6c" transform="translate(658.871094 0)"/>
      <use xlink:href="#DejaVuSans-61" transform="translate(686.654297 0)"/>
      <use xlink:href="#DejaVuSans-72" transform="translate(747.933594 0)"/>
      <use xlink:href="#DejaVuSans-69" transform="translate(789.046875 0)"/>
      <use xlink:href="#DejaVuSans-74" transform="translate(816.830078 0)"/>
      <use xlink:href="#DejaVuSans-79" transform="translate(856.039062 0)"/>
      <use xlink:href="#DejaVuSans-20" transform="translate(915.21875 0)"/>
      <use xlink:href="#DejaVuSans-53" transform="translate(947.005859 0)"/>
      <use xlink:href="#DejaVuSans-63" transform="translate(1010.482422 0)"/>
      <use xlink:href="#DejaVuSans-6f" transform="translate(1065.462891 0)"/>
      <use xlink:href="#DejaVuSans-72" transform="translate(1126.644531 0)"/>
      <use xlink:href="#DejaVuSans-65" transform="translate(1165.507812 0)"/>
     </g>
    </g>
   </g>
   <g id="patch_11">
    <path d="M 48.8975 364.367351 
L 48.8975 38.14175 
" style="fill: none; stroke: #000000; stroke-width: 0.8; stroke-linejoin: miter; stroke-linecap: square"/>
   </g>
   <g id="patch_12">
    <path d="M 1061.3775 364.367351 
L 1061.3775 38.14175 
" style="fill: none; stroke: #000000; stroke-width: 0.8; stroke-linejoin: miter; stroke-linecap: square"/>
   </g>
   <g id="patch_13">
    <path d="M 48.8975 364.367351 
L 1061.3775 364.367351 
" style="fill: none; stroke: #000000; stroke-width: 0.8; stroke-linejoin: miter; stroke-linecap: square"/>
   </g>
   <g id="patch_14">
    <path d="M 48.8975 38.14175 
L 1061.3775 38.14175 
" style="fill: none; stroke: #000000; stroke-width: 0.8; stroke-linejoin: miter; stroke-linecap: square"/>
   </g>
   <g id="text_17">
    <!-- n=4 -->
    <g transform="translate(131.581339 36.062062) scale(0.1 -0.1)">
     <defs>
      <path id="DejaVuSans-3d" d="M 678 2906 
L 4684 2906 
L 4684 2381 
L 678 2381 
L 678 2906 
z
M 678 1631 
L 4684 1631 
L 4684 1100 
L 678 1100 
L 678 1631 
z
" transform="scale(0.015625)"/>
     </defs>
     <use xlink:href="#DejaVuSans-6e"/>
     <use xlink:href="#DejaVuSans-3d" transform="translate(63.378906 0)"/>
     <use xlink:href="#DejaVuSans-34" transform="translate(147.167969 0)"/>
    </g>
   </g>
   <g id="text_18">
    <!-- n=10 -->
    <g transform="translate(246.404751 103.48202) scale(0.1 -0.1)">
     <use xlink:href="#DejaVuSans-6e"/>
     <use xlink:href="#DejaVuSans-3d" transform="translate(63.378906 0)"/>
     <use xlink:href="#DejaVuSans-31" transform="translate(147.167969 0)"/>
     <use xlink:href="#DejaVuSans-30" transform="translate(210.791016 0)"/>
    </g>
   </g>
   <g id="text_19">
    <!-- n=8 -->
    <g transform="translate(367.590663 108.669913) scale(0.1 -0.1)">
     <use xlink:href="#DejaVuSans-6e"/>
     <use xlink:href="#DejaVuSans-3d" transform="translate(63.378906 0)"/>
     <use xlink:href="#DejaVuSans-38" transform="translate(147.167969 0)"/>
    </g>
   </g>
   <g id="text_20">
    <!-- n=14 -->
    <g transform="translate(482.414075 71.478825) scale(0.1 -0.1)">
     <use xlink:href="#DejaVuSans-6e"/>
     <use xlink:href="#DejaVuSans-3d" transform="translate(63.378906 0)"/>
     <use xlink:href="#DejaVuSans-31" transform="translate(147.167969 0)"/>
     <use xlink:href="#DejaVuSans-34" transform="translate(210.791016 0)"/>
    </g>
   </g>
   <g id="text_21">
    <!-- n=5 -->
    <g transform="translate(603.599987 66.626294) scale(0.1 -0.1)">
     <use xlink:href="#DejaVuSans-6e"/>
     <use xlink:href="#DejaVuSans-3d" transform="translate(63.378906 0)"/>
     <use xlink:href="#DejaVuSans-35" transform="translate(147.167969 0)"/>
    </g>
   </g>
   <g id="text_22">
    <!-- n=10 -->
    <g transform="translate(718.423399 79.415514) scale(0.1 -0.1)">
     <use xlink:href="#DejaVuSans-6e"/>
     <use xlink:href="#DejaVuSans-3d" transform="translate(63.378906 0)"/>
     <use xlink:href="#DejaVuSans-31" transform="translate(147.167969 0)"/>
     <use xlink:href="#DejaVuSans-30" transform="translate(210.791016 0)"/>
    </g>
   </g>
   <g id="text_23">
    <!-- n=10 -->
    <g transform="translate(836.428061 57.78916) scale(0.1 -0.1)">
     <use xlink:href="#DejaVuSans-6e"/>
     <use xlink:href="#DejaVuSans-3d" transform="translate(63.378906 0)"/>
     <use xlink:href="#DejaVuSans-31" transform="translate(147.167969 0)"/>
     <use xlink:href="#DejaVuSans-30" transform="translate(210.791016 0)"/>
    </g>
   </g>
   <g id="text_24">
    <!-- n=6 -->
    <g transform="translate(957.613973 77.609265) scale(0.1 -0.1)">
     <use xlink:href="#DejaVuSans-6e"/>
     <use xlink:href="#DejaVuSans-3d" transform="translate(63.378906 0)"/>
     <use xlink:href="#DejaVuSans-36" transform="translate(147.167969 0)"/>
    </g>
   </g>
   <g id="text_25">
    <!-- Average Similarity Score by ARM Function Set Size(User-defined) -->
    <g transform="translate(321.88225 18.14175) scale(0.144 -0.144)">
     <defs>
      <path id="DejaVuSans-62" d="M 3116 1747 
Q 3116 2381 2855 2742 
Q 2594 3103 2138 3103 
Q 1681 3103 1420 2742 
Q 1159 2381 1159 1747 
Q 1159 1113 1420 752 
Q 1681 391 2138 391 
Q 2594 391 2855 752 
Q 3116 1113 3116 1747 
z
M 1159 2969 
Q 1341 3281 1617 3432 
Q 1894 3584 2278 3584 
Q 2916 3584 3314 3078 
Q 3713 2572 3713 1747 
Q 3713 922 3314 415 
Q 2916 -91 2278 -91 
Q 1894 -91 1617 61 
Q 1341 213 1159 525 
L 1159 0 
L 581 0 
L 581 4863 
L 1159 4863 
L 1159 2969 
z
" transform="scale(0.015625)"/>
      <path id="DejaVuSans-55" d="M 556 4666 
L 1191 4666 
L 1191 1831 
Q 1191 1081 1462 751 
Q 1734 422 2344 422 
Q 2950 422 3222 751 
Q 3494 1081 3494 1831 
L 3494 4666 
L 4128 4666 
L 4128 1753 
Q 4128 841 3676 375 
Q 3225 -91 2344 -91 
Q 1459 -91 1007 375 
Q 556 841 556 1753 
L 556 4666 
z
" transform="scale(0.015625)"/>
      <path id="DejaVuSans-64" d="M 2906 2969 
L 2906 4863 
L 3481 4863 
L 3481 0 
L 2906 0 
L 2906 525 
Q 2725 213 2448 61 
Q 2172 -91 1784 -91 
Q 1150 -91 751 415 
Q 353 922 353 1747 
Q 353 2572 751 3078 
Q 1150 3584 1784 3584 
Q 2172 3584 2448 3432 
Q 2725 3281 2906 2969 
z
M 947 1747 
Q 947 1113 1208 752 
Q 1469 391 1925 391 
Q 2381 391 2643 752 
Q 2906 1113 2906 1747 
Q 2906 2381 2643 2742 
Q 2381 3103 1925 3103 
Q 1469 3103 1208 2742 
Q 947 2381 947 1747 
z
" transform="scale(0.015625)"/>
      <path id="DejaVuSans-66" d="M 2375 4863 
L 2375 4384 
L 1825 4384 
Q 1516 4384 1395 4259 
Q 1275 4134 1275 3809 
L 1275 3500 
L 2222 3500 
L 2222 3053 
L 1275 3053 
L 1275 0 
L 697 0 
L 697 3053 
L 147 3053 
L 147 3500 
L 697 3500 
L 697 3744 
Q 697 4328 969 4595 
Q 1241 4863 1831 4863 
L 2375 4863 
z
" transform="scale(0.015625)"/>
     </defs>
     <use xlink:href="#DejaVuSans-41"/>
     <use xlink:href="#DejaVuSans-76" transform="translate(62.533203 0)"/>
     <use xlink:href="#DejaVuSans-65" transform="translate(121.712891 0)"/>
     <use xlink:href="#DejaVuSans-72" transform="translate(183.236328 0)"/>
     <use xlink:href="#DejaVuSans-61" transform="translate(224.349609 0)"/>
     <use xlink:href="#DejaVuSans-67" transform="translate(285.628906 0)"/>
     <use xlink:href="#DejaVuSans-65" transform="translate(349.105469 0)"/>
     <use xlink:href="#DejaVuSans-20" transform="translate(410.628906 0)"/>
     <use xlink:href="#DejaVuSans-53" transform="translate(442.416016 0)"/>
     <use xlink:href="#DejaVuSans-69" transform="translate(505.892578 0)"/>
     <use xlink:href="#DejaVuSans-6d" transform="translate(533.675781 0)"/>
     <use xlink:href="#DejaVuSans-69" transform="translate(631.087891 0)"/>
     <use xlink:href="#DejaVuSans-6c" transform="translate(658.871094 0)"/>
     <use xlink:href="#DejaVuSans-61" transform="translate(686.654297 0)"/>
     <use xlink:href="#DejaVuSans-72" transform="translate(747.933594 0)"/>
     <use xlink:href="#DejaVuSans-69" transform="translate(789.046875 0)"/>
     <use xlink:href="#DejaVuSans-74" transform="translate(816.830078 0)"/>
     <use xlink:href="#DejaVuSans-79" transform="translate(856.039062 0)"/>
     <use xlink:href="#DejaVuSans-20" transform="translate(915.21875 0)"/>
     <use xlink:href="#DejaVuSans-53" transform="translate(947.005859 0)"/>
     <use xlink:href="#DejaVuSans-63" transform="translate(1010.482422 0)"/>
     <use xlink:href="#DejaVuSans-6f" transform="translate(1065.462891 0)"/>
     <use xlink:href="#DejaVuSans-72" transform="translate(1126.644531 0)"/>
     <use xlink:href="#DejaVuSans-65" transform="translate(1165.507812 0)"/>
     <use xlink:href="#DejaVuSans-20" transform="translate(1227.03125 0)"/>
     <use xlink:href="#DejaVuSans-62" transform="translate(1258.818359 0)"/>
     <use xlink:href="#DejaVuSans-79" transform="translate(1322.294922 0)"/>
     <use xlink:href="#DejaVuSans-20" transform="translate(1381.474609 0)"/>
     <use xlink:href="#DejaVuSans-41" transform="translate(1413.261719 0)"/>
     <use xlink:href="#DejaVuSans-52" transform="translate(1481.669922 0)"/>
     <use xlink:href="#DejaVuSans-4d" transform="translate(1551.152344 0)"/>
     <use xlink:href="#DejaVuSans-20" transform="translate(1637.431641 0)"/>
     <use xlink:href="#DejaVuSans-46" transform="translate(1669.21875 0)"/>
     <use xlink:href="#DejaVuSans-75" transform="translate(1721.238281 0)"/>
     <use xlink:href="#DejaVuSans-6e" transform="translate(1784.617188 0)"/>
     <use xlink:href="#DejaVuSans-63" transform="translate(1847.996094 0)"/>
     <use xlink:href="#DejaVuSans-74" transform="translate(1902.976562 0)"/>
     <use xlink:href="#DejaVuSans-69" transform="translate(1942.185547 0)"/>
     <use xlink:href="#DejaVuSans-6f" transform="translate(1969.96875 0)"/>
     <use xlink:href="#DejaVuSans-6e" transform="translate(2031.150391 0)"/>
     <use xlink:href="#DejaVuSans-20" transform="translate(2094.529297 0)"/>
     <use xlink:href="#DejaVuSans-53" transform="translate(2126.316406 0)"/>
     <use xlink:href="#DejaVuSans-65" transform="translate(2189.792969 0)"/>
     <use xlink:href="#DejaVuSans-74" transform="translate(2251.316406 0)"/>
     <use xlink:href="#DejaVuSans-20" transform="translate(2290.525391 0)"/>
     <use xlink:href="#DejaVuSans-53" transform="translate(2322.3125 0)"/>
     <use xlink:href="#DejaVuSans-69" transform="translate(2385.789062 0)"/>
     <use xlink:href="#DejaVuSans-7a" transform="translate(2413.572266 0)"/>
     <use xlink:href="#DejaVuSans-65" transform="translate(2466.0625 0)"/>
     <use xlink:href="#DejaVuSans-28" transform="translate(2527.585938 0)"/>
     <use xlink:href="#DejaVuSans-55" transform="translate(2566.599609 0)"/>
     <use xlink:href="#DejaVuSans-73" transform="translate(2639.792969 0)"/>
     <use xlink:href="#DejaVuSans-65" transform="translate(2691.892578 0)"/>
     <use xlink:href="#DejaVuSans-72" transform="translate(2753.416016 0)"/>
     <use xlink:href="#DejaVuSans-2d" transform="translate(2788.154297 0)"/>
     <use xlink:href="#DejaVuSans-64" transform="translate(2824.238281 0)"/>
     <use xlink:href="#DejaVuSans-65" transform="translate(2887.714844 0)"/>
     <use xlink:href="#DejaVuSans-66" transform="translate(2949.238281 0)"/>
     <use xlink:href="#DejaVuSans-69" transform="translate(2984.443359 0)"/>
     <use xlink:href="#DejaVuSans-6e" transform="translate(3012.226562 0)"/>
     <use xlink:href="#DejaVuSans-65" transform="translate(3075.605469 0)"/>
     <use xlink:href="#DejaVuSans-64" transform="translate(3137.128906 0)"/>
     <use xlink:href="#DejaVuSans-29" transform="translate(3200.605469 0)"/>
    </g>
   </g>
  </g>
  <g id="axes_2">
   <g id="patch_15">
    <path d="M 48.8975 789.887351 
L 1061.3775 789.887351 
L 1061.3775 463.66175 
L 48.8975 463.66175 
z
" style="fill: #ffffff"/>
   </g>
   <g id="patch_16">
    <path d="M 94.919318 789.887351 
L 178.595351 789.887351 
L 178.595351 502.808822 
L 94.919318 502.808822 
z
" clip-path="url(#p221b1b967d)" style="fill: #4574b3"/>
   </g>
   <g id="patch_17">
    <path d="M 199.51436 789.887351 
L 283.190393 789.887351 
L 283.190393 525.694042 
L 199.51436 525.694042 
z
" clip-path="url(#p221b1b967d)" style="fill: #74add1"/>
   </g>
   <g id="patch_18">
    <path d="M 304.109401 789.887351 
L 387.785434 789.887351 
L 387.785434 526.490384 
L 304.109401 526.490384 
z
" clip-path="url(#p221b1b967d)" style="fill: #aad8e9"/>
   </g>
   <g id="patch_19">
    <path d="M 408.704442 789.887351 
L 492.380475 789.887351 
L 492.380475 491.645671 
L 408.704442 491.645671 
z
" clip-path="url(#p221b1b967d)" style="fill: #e0f3f8"/>
   </g>
   <g id="patch_20">
    <path d="M 513.299483 789.887351 
L 596.975517 789.887351 
L 596.975517 496.413765 
L 513.299483 496.413765 
z
" clip-path="url(#p221b1b967d)" style="fill: #fffebe"/>
   </g>
   <g id="patch_21">
    <path d="M 617.894525 789.887351 
L 701.570558 789.887351 
L 701.570558 517.937511 
L 617.894525 517.937511 
z
" clip-path="url(#p221b1b967d)" style="fill: #fee090"/>
   </g>
   <g id="patch_22">
    <path d="M 722.489566 789.887351 
L 806.165599 789.887351 
L 806.165599 494.042168 
L 722.489566 494.042168 
z
" clip-path="url(#p221b1b967d)" style="fill: #fdad60"/>
   </g>
   <g id="patch_23">
    <path d="M 827.084607 789.887351 
L 910.76064 789.887351 
L 910.76064 482.955942 
L 827.084607 482.955942 
z
" clip-path="url(#p221b1b967d)" style="fill: #f46d43"/>
   </g>
   <g id="patch_24">
    <path d="M 931.679649 789.887351 
L 1015.355682 789.887351 
L 1015.355682 514.365436 
L 931.679649 514.365436 
z
" clip-path="url(#p221b1b967d)" style="fill: #d62f27"/>
   </g>
   <g id="matplotlib.axis_3">
    <g id="xtick_9">
     <g id="line2d_29">
      <path d="M 136.757335 789.887351 
L 136.757335 463.66175 
" clip-path="url(#p221b1b967d)" style="fill: none; stroke: #b0b0b0; stroke-opacity: 0.3; stroke-width: 0.8; stroke-linecap: square"/>
     </g>
     <g id="line2d_30">
      <g>
       <use xlink:href="#me9acf42533" x="136.757335" y="789.887351" style="stroke: #000000; stroke-width: 0.8"/>
      </g>
     </g>
     <g id="text_26">
      <!-- 0-3 -->
      <g transform="translate(132.169317 817.19369) rotate(-45) scale(0.12 -0.12)">
       <use xlink:href="#DejaVuSans-30"/>
       <use xlink:href="#DejaVuSans-2d" transform="translate(63.623047 0)"/>
       <use xlink:href="#DejaVuSans-33" transform="translate(99.707031 0)"/>
      </g>
     </g>
    </g>
    <g id="xtick_10">
     <g id="line2d_31">
      <path d="M 241.352376 789.887351 
L 241.352376 463.66175 
" clip-path="url(#p221b1b967d)" style="fill: none; stroke: #b0b0b0; stroke-opacity: 0.3; stroke-width: 0.8; stroke-linecap: square"/>
     </g>
     <g id="line2d_32">
      <g>
       <use xlink:href="#me9acf42533" x="241.352376" y="789.887351" style="stroke: #000000; stroke-width: 0.8"/>
      </g>
     </g>
     <g id="text_27">
      <!-- 3-6 -->
      <g transform="translate(236.764358 817.19369) rotate(-45) scale(0.12 -0.12)">
       <use xlink:href="#DejaVuSans-33"/>
       <use xlink:href="#DejaVuSans-2d" transform="translate(63.623047 0)"/>
       <use xlink:href="#DejaVuSans-36" transform="translate(99.707031 0)"/>
      </g>
     </g>
    </g>
    <g id="xtick_11">
     <g id="line2d_33">
      <path d="M 345.947417 789.887351 
L 345.947417 463.66175 
" clip-path="url(#p221b1b967d)" style="fill: none; stroke: #b0b0b0; stroke-opacity: 0.3; stroke-width: 0.8; stroke-linecap: square"/>
     </g>
     <g id="line2d_34">
      <g>
       <use xlink:href="#me9acf42533" x="345.947417" y="789.887351" style="stroke: #000000; stroke-width: 0.8"/>
      </g>
     </g>
     <g id="text_28">
      <!-- 6-9 -->
      <g transform="translate(341.359399 817.19369) rotate(-45) scale(0.12 -0.12)">
       <use xlink:href="#DejaVuSans-36"/>
       <use xlink:href="#DejaVuSans-2d" transform="translate(63.623047 0)"/>
       <use xlink:href="#DejaVuSans-39" transform="translate(99.707031 0)"/>
      </g>
     </g>
    </g>
    <g id="xtick_12">
     <g id="line2d_35">
      <path d="M 450.542459 789.887351 
L 450.542459 463.66175 
" clip-path="url(#p221b1b967d)" style="fill: none; stroke: #b0b0b0; stroke-opacity: 0.3; stroke-width: 0.8; stroke-linecap: square"/>
     </g>
     <g id="line2d_36">
      <g>
       <use xlink:href="#me9acf42533" x="450.542459" y="789.887351" style="stroke: #000000; stroke-width: 0.8"/>
      </g>
     </g>
     <g id="text_29">
      <!-- 9-12 -->
      <g transform="translate(443.25506 822.59245) rotate(-45) scale(0.12 -0.12)">
       <use xlink:href="#DejaVuSans-39"/>
       <use xlink:href="#DejaVuSans-2d" transform="translate(63.623047 0)"/>
       <use xlink:href="#DejaVuSans-31" transform="translate(99.707031 0)"/>
       <use xlink:href="#DejaVuSans-32" transform="translate(163.330078 0)"/>
      </g>
     </g>
    </g>
    <g id="xtick_13">
     <g id="line2d_37">
      <path d="M 555.1375 789.887351 
L 555.1375 463.66175 
" clip-path="url(#p221b1b967d)" style="fill: none; stroke: #b0b0b0; stroke-opacity: 0.3; stroke-width: 0.8; stroke-linecap: square"/>
     </g>
     <g id="line2d_38">
      <g>
       <use xlink:href="#me9acf42533" x="555.1375" y="789.887351" style="stroke: #000000; stroke-width: 0.8"/>
      </g>
     </g>
     <g id="text_30">
      <!-- 12-15 -->
      <g transform="translate(545.150722 827.99121) rotate(-45) scale(0.12 -0.12)">
       <use xlink:href="#DejaVuSans-31"/>
       <use xlink:href="#DejaVuSans-32" transform="translate(63.623047 0)"/>
       <use xlink:href="#DejaVuSans-2d" transform="translate(127.246094 0)"/>
       <use xlink:href="#DejaVuSans-31" transform="translate(163.330078 0)"/>
       <use xlink:href="#DejaVuSans-35" transform="translate(226.953125 0)"/>
      </g>
     </g>
    </g>
    <g id="xtick_14">
     <g id="line2d_39">
      <path d="M 659.732541 789.887351 
L 659.732541 463.66175 
" clip-path="url(#p221b1b967d)" style="fill: none; stroke: #b0b0b0; stroke-opacity: 0.3; stroke-width: 0.8; stroke-linecap: square"/>
     </g>
     <g id="line2d_40">
      <g>
       <use xlink:href="#me9acf42533" x="659.732541" y="789.887351" style="stroke: #000000; stroke-width: 0.8"/>
      </g>
     </g>
     <g id="text_31">
      <!-- 15-20 -->
      <g transform="translate(649.745763 827.99121) rotate(-45) scale(0.12 -0.12)">
       <use xlink:href="#DejaVuSans-31"/>
       <use xlink:href="#DejaVuSans-35" transform="translate(63.623047 0)"/>
       <use xlink:href="#DejaVuSans-2d" transform="translate(127.246094 0)"/>
       <use xlink:href="#DejaVuSans-32" transform="translate(163.330078 0)"/>
       <use xlink:href="#DejaVuSans-30" transform="translate(226.953125 0)"/>
      </g>
     </g>
    </g>
    <g id="xtick_15">
     <g id="line2d_41">
      <path d="M 764.327583 789.887351 
L 764.327583 463.66175 
" clip-path="url(#p221b1b967d)" style="fill: none; stroke: #b0b0b0; stroke-opacity: 0.3; stroke-width: 0.8; stroke-linecap: square"/>
     </g>
     <g id="line2d_42">
      <g>
       <use xlink:href="#me9acf42533" x="764.327583" y="789.887351" style="stroke: #000000; stroke-width: 0.8"/>
      </g>
     </g>
     <g id="text_32">
      <!-- 20-25 -->
      <g transform="translate(754.340804 827.99121) rotate(-45) scale(0.12 -0.12)">
       <use xlink:href="#DejaVuSans-32"/>
       <use xlink:href="#DejaVuSans-30" transform="translate(63.623047 0)"/>
       <use xlink:href="#DejaVuSans-2d" transform="translate(127.246094 0)"/>
       <use xlink:href="#DejaVuSans-32" transform="translate(163.330078 0)"/>
       <use xlink:href="#DejaVuSans-35" transform="translate(226.953125 0)"/>
      </g>
     </g>
    </g>
    <g id="xtick_16">
     <g id="line2d_43">
      <path d="M 868.922624 789.887351 
L 868.922624 463.66175 
" clip-path="url(#p221b1b967d)" style="fill: none; stroke: #b0b0b0; stroke-opacity: 0.3; stroke-width: 0.8; stroke-linecap: square"/>
     </g>
     <g id="line2d_44">
      <g>
       <use xlink:href="#me9acf42533" x="868.922624" y="789.887351" style="stroke: #000000; stroke-width: 0.8"/>
      </g>
     </g>
     <g id="text_33">
      <!-- 25-30 -->
      <g transform="translate(858.935846 827.99121) rotate(-45) scale(0.12 -0.12)">
       <use xlink:href="#DejaVuSans-32"/>
       <use xlink:href="#DejaVuSans-35" transform="translate(63.623047 0)"/>
       <use xlink:href="#DejaVuSans-2d" transform="translate(127.246094 0)"/>
       <use xlink:href="#DejaVuSans-33" transform="translate(163.330078 0)"/>
       <use xlink:href="#DejaVuSans-30" transform="translate(226.953125 0)"/>
      </g>
     </g>
    </g>
    <g id="xtick_17">
     <g id="line2d_45">
      <path d="M 973.517665 789.887351 
L 973.517665 463.66175 
" clip-path="url(#p221b1b967d)" style="fill: none; stroke: #b0b0b0; stroke-opacity: 0.3; stroke-width: 0.8; stroke-linecap: square"/>
     </g>
     <g id="line2d_46">
      <g>
       <use xlink:href="#me9acf42533" x="973.517665" y="789.887351" style="stroke: #000000; stroke-width: 0.8"/>
      </g>
     </g>
     <g id="text_34">
      <!-- 30-40 -->
      <g transform="translate(963.530887 827.99121) rotate(-45) scale(0.12 -0.12)">
       <use xlink:href="#DejaVuSans-33"/>
       <use xlink:href="#DejaVuSans-30" transform="translate(63.623047 0)"/>
       <use xlink:href="#DejaVuSans-2d" transform="translate(127.246094 0)"/>
       <use xlink:href="#DejaVuSans-34" transform="translate(163.330078 0)"/>
       <use xlink:href="#DejaVuSans-30" transform="translate(226.953125 0)"/>
      </g>
     </g>
    </g>
    <g id="text_35">
     <!-- MIPS Function Set Size (Instructions) -->
     <g transform="translate(445.529688 842.874009) scale(0.12 -0.12)">
      <defs>
       <path id="DejaVuSans-50" d="M 1259 4147 
L 1259 2394 
L 2053 2394 
Q 2494 2394 2734 2622 
Q 2975 2850 2975 3272 
Q 2975 3691 2734 3919 
Q 2494 4147 2053 4147 
L 1259 4147 
z
M 628 4666 
L 2053 4666 
Q 2838 4666 3239 4311 
Q 3641 3956 3641 3272 
Q 3641 2581 3239 2228 
Q 2838 1875 2053 1875 
L 1259 1875 
L 1259 0 
L 628 0 
L 628 4666 
z
" transform="scale(0.015625)"/>
      </defs>
      <use xlink:href="#DejaVuSans-4d"/>
      <use xlink:href="#DejaVuSans-49" transform="translate(86.279297 0)"/>
      <use xlink:href="#DejaVuSans-50" transform="translate(115.771484 0)"/>
      <use xlink:href="#DejaVuSans-53" transform="translate(176.074219 0)"/>
      <use xlink:href="#DejaVuSans-20" transform="translate(239.550781 0)"/>
      <use xlink:href="#DejaVuSans-46" transform="translate(271.337891 0)"/>
      <use xlink:href="#DejaVuSans-75" transform="translate(323.357422 0)"/>
      <use xlink:href="#DejaVuSans-6e" transform="translate(386.736328 0)"/>
      <use xlink:href="#DejaVuSans-63" transform="translate(450.115234 0)"/>
      <use xlink:href="#DejaVuSans-74" transform="translate(505.095703 0)"/>
      <use xlink:href="#DejaVuSans-69" transform="translate(544.304688 0)"/>
      <use xlink:href="#DejaVuSans-6f" transform="translate(572.087891 0)"/>
      <use xlink:href="#DejaVuSans-6e" transform="translate(633.269531 0)"/>
      <use xlink:href="#DejaVuSans-20" transform="translate(696.648438 0)"/>
      <use xlink:href="#DejaVuSans-53" transform="translate(728.435547 0)"/>
      <use xlink:href="#DejaVuSans-65" transform="translate(791.912109 0)"/>
      <use xlink:href="#DejaVuSans-74" transform="translate(853.435547 0)"/>
      <use xlink:href="#DejaVuSans-20" transform="translate(892.644531 0)"/>
      <use xlink:href="#DejaVuSans-53" transform="translate(924.431641 0)"/>
      <use xlink:href="#DejaVuSans-69" transform="translate(987.908203 0)"/>
      <use xlink:href="#DejaVuSans-7a" transform="translate(1015.691406 0)"/>
      <use xlink:href="#DejaVuSans-65" transform="translate(1068.181641 0)"/>
      <use xlink:href="#DejaVuSans-20" transform="translate(1129.705078 0)"/>
      <use xlink:href="#DejaVuSans-28" transform="translate(1161.492188 0)"/>
      <use xlink:href="#DejaVuSans-49" transform="translate(1200.505859 0)"/>
      <use xlink:href="#DejaVuSans-6e" transform="translate(1229.998047 0)"/>
      <use xlink:href="#DejaVuSans-73" transform="translate(1293.376953 0)"/>
      <use xlink:href="#DejaVuSans-74" transform="translate(1345.476562 0)"/>
      <use xlink:href="#DejaVuSans-72" transform="translate(1384.685547 0)"/>
      <use xlink:href="#DejaVuSans-75" transform="translate(1425.798828 0)"/>
      <use xlink:href="#DejaVuSans-63" transform="translate(1489.177734 0)"/>
      <use xlink:href="#DejaVuSans-74" transform="translate(1544.158203 0)"/>
      <use xlink:href="#DejaVuSans-69" transform="translate(1583.367188 0)"/>
      <use xlink:href="#DejaVuSans-6f" transform="translate(1611.150391 0)"/>
      <use xlink:href="#DejaVuSans-6e" transform="translate(1672.332031 0)"/>
      <use xlink:href="#DejaVuSans-73" transform="translate(1735.710938 0)"/>
      <use xlink:href="#DejaVuSans-29" transform="translate(1787.810547 0)"/>
     </g>
    </g>
   </g>
   <g id="matplotlib.axis_4">
    <g id="ytick_7">
     <g id="line2d_47">
      <path d="M 48.8975 789.887351 
L 1061.3775 789.887351 
" clip-path="url(#p221b1b967d)" style="fill: none; stroke: #b0b0b0; stroke-opacity: 0.3; stroke-width: 0.8; stroke-linecap: square"/>
     </g>
     <g id="line2d_48">
      <g>
       <use xlink:href="#mf6de18ff98" x="48.8975" y="789.887351" style="stroke: #000000; stroke-width: 0.8"/>
      </g>
     </g>
     <g id="text_36">
      <!-- 0.0 -->
      <g transform="translate(22.81375 794.446413) scale(0.12 -0.12)">
       <use xlink:href="#DejaVuSans-30"/>
       <use xlink:href="#DejaVuSans-2e" transform="translate(63.623047 0)"/>
       <use xlink:href="#DejaVuSans-30" transform="translate(95.410156 0)"/>
      </g>
     </g>
    </g>
    <g id="ytick_8">
     <g id="line2d_49">
      <path d="M 48.8975 724.642231 
L 1061.3775 724.642231 
" clip-path="url(#p221b1b967d)" style="fill: none; stroke: #b0b0b0; stroke-opacity: 0.3; stroke-width: 0.8; stroke-linecap: square"/>
     </g>
     <g id="line2d_50">
      <g>
       <use xlink:href="#mf6de18ff98" x="48.8975" y="724.642231" style="stroke: #000000; stroke-width: 0.8"/>
      </g>
     </g>
     <g id="text_37">
      <!-- 0.2 -->
      <g transform="translate(22.81375 729.201293) scale(0.12 -0.12)">
       <use xlink:href="#DejaVuSans-30"/>
       <use xlink:href="#DejaVuSans-2e" transform="translate(63.623047 0)"/>
       <use xlink:href="#DejaVuSans-32" transform="translate(95.410156 0)"/>
      </g>
     </g>
    </g>
    <g id="ytick_9">
     <g id="line2d_51">
      <path d="M 48.8975 659.39711 
L 1061.3775 659.39711 
" clip-path="url(#p221b1b967d)" style="fill: none; stroke: #b0b0b0; stroke-opacity: 0.3; stroke-width: 0.8; stroke-linecap: square"/>
     </g>
     <g id="line2d_52">
      <g>
       <use xlink:href="#mf6de18ff98" x="48.8975" y="659.39711" style="stroke: #000000; stroke-width: 0.8"/>
      </g>
     </g>
     <g id="text_38">
      <!-- 0.4 -->
      <g transform="translate(22.81375 663.956173) scale(0.12 -0.12)">
       <use xlink:href="#DejaVuSans-30"/>
       <use xlink:href="#DejaVuSans-2e" transform="translate(63.623047 0)"/>
       <use xlink:href="#DejaVuSans-34" transform="translate(95.410156 0)"/>
      </g>
     </g>
    </g>
    <g id="ytick_10">
     <g id="line2d_53">
      <path d="M 48.8975 594.15199 
L 1061.3775 594.15199 
" clip-path="url(#p221b1b967d)" style="fill: none; stroke: #b0b0b0; stroke-opacity: 0.3; stroke-width: 0.8; stroke-linecap: square"/>
     </g>
     <g id="line2d_54">
      <g>
       <use xlink:href="#mf6de18ff98" x="48.8975" y="594.15199" style="stroke: #000000; stroke-width: 0.8"/>
      </g>
     </g>
     <g id="text_39">
      <!-- 0.6 -->
      <g transform="translate(22.81375 598.711053) scale(0.12 -0.12)">
       <use xlink:href="#DejaVuSans-30"/>
       <use xlink:href="#DejaVuSans-2e" transform="translate(63.623047 0)"/>
       <use xlink:href="#DejaVuSans-36" transform="translate(95.410156 0)"/>
      </g>
     </g>
    </g>
    <g id="ytick_11">
     <g id="line2d_55">
      <path d="M 48.8975 528.90687 
L 1061.3775 528.90687 
" clip-path="url(#p221b1b967d)" style="fill: none; stroke: #b0b0b0; stroke-opacity: 0.3; stroke-width: 0.8; stroke-linecap: square"/>
     </g>
     <g id="line2d_56">
      <g>
       <use xlink:href="#mf6de18ff98" x="48.8975" y="528.90687" style="stroke: #000000; stroke-width: 0.8"/>
      </g>
     </g>
     <g id="text_40">
      <!-- 0.8 -->
      <g transform="translate(22.81375 533.465933) scale(0.12 -0.12)">
       <use xlink:href="#DejaVuSans-30"/>
       <use xlink:href="#DejaVuSans-2e" transform="translate(63.623047 0)"/>
       <use xlink:href="#DejaVuSans-38" transform="translate(95.410156 0)"/>
      </g>
     </g>
    </g>
    <g id="ytick_12">
     <g id="line2d_57">
      <path d="M 48.8975 463.66175 
L 1061.3775 463.66175 
" clip-path="url(#p221b1b967d)" style="fill: none; stroke: #b0b0b0; stroke-opacity: 0.3; stroke-width: 0.8; stroke-linecap: square"/>
     </g>
     <g id="line2d_58">
      <g>
       <use xlink:href="#mf6de18ff98" x="48.8975" y="463.66175" style="stroke: #000000; stroke-width: 0.8"/>
      </g>
     </g>
     <g id="text_41">
      <!-- 1.0 -->
      <g transform="translate(22.81375 468.220812) scale(0.12 -0.12)">
       <use xlink:href="#DejaVuSans-31"/>
       <use xlink:href="#DejaVuSans-2e" transform="translate(63.623047 0)"/>
       <use xlink:href="#DejaVuSans-30" transform="translate(95.410156 0)"/>
      </g>
     </g>
    </g>
    <g id="text_42">
     <!-- Average Similarity Score -->
     <g transform="translate(16.318125 700.3983) rotate(-90) scale(0.12 -0.12)">
      <use xlink:href="#DejaVuSans-41"/>
      <use xlink:href="#DejaVuSans-76" transform="translate(62.533203 0)"/>
      <use xlink:href="#DejaVuSans-65" transform="translate(121.712891 0)"/>
      <use xlink:href="#DejaVuSans-72" transform="translate(183.236328 0)"/>
      <use xlink:href="#DejaVuSans-61" transform="translate(224.349609 0)"/>
      <use xlink:href="#DejaVuSans-67" transform="translate(285.628906 0)"/>
      <use xlink:href="#DejaVuSans-65" transform="translate(349.105469 0)"/>
      <use xlink:href="#DejaVuSans-20" transform="translate(410.628906 0)"/>
      <use xlink:href="#DejaVuSans-53" transform="translate(442.416016 0)"/>
      <use xlink:href="#DejaVuSans-69" transform="translate(505.892578 0)"/>
      <use xlink:href="#DejaVuSans-6d" transform="translate(533.675781 0)"/>
      <use xlink:href="#DejaVuSans-69" transform="translate(631.087891 0)"/>
      <use xlink:href="#DejaVuSans-6c" transform="translate(658.871094 0)"/>
      <use xlink:href="#DejaVuSans-61" transform="translate(686.654297 0)"/>
      <use xlink:href="#DejaVuSans-72" transform="translate(747.933594 0)"/>
      <use xlink:href="#DejaVuSans-69" transform="translate(789.046875 0)"/>
      <use xlink:href="#DejaVuSans-74" transform="translate(816.830078 0)"/>
      <use xlink:href="#DejaVuSans-79" transform="translate(856.039062 0)"/>
      <use xlink:href="#DejaVuSans-20" transform="translate(915.21875 0)"/>
      <use xlink:href="#DejaVuSans-53" transform="translate(947.005859 0)"/>
      <use xlink:href="#DejaVuSans-63" transform="translate(1010.482422 0)"/>
      <use xlink:href="#DejaVuSans-6f" transform="translate(1065.462891 0)"/>
      <use xlink:href="#DejaVuSans-72" transform="translate(1126.644531 0)"/>
      <use xlink:href="#DejaVuSans-65" transform="translate(1165.507812 0)"/>
     </g>
    </g>
   </g>
   <g id="patch_25">
    <path d="M 48.8975 789.887351 
L 48.8975 463.66175 
" style="fill: none; stroke: #000000; stroke-width: 0.8; stroke-linejoin: miter; stroke-linecap: square"/>
   </g>
   <g id="patch_26">
    <path d="M 1061.3775 789.887351 
L 1061.3775 463.66175 
" style="fill: none; stroke: #000000; stroke-width: 0.8; stroke-linejoin: miter; stroke-linecap: square"/>
   </g>
   <g id="patch_27">
    <path d="M 48.8975 789.887351 
L 1061.3775 789.887351 
" style="fill: none; stroke: #000000; stroke-width: 0.8; stroke-linejoin: miter; stroke-linecap: square"/>
   </g>
   <g id="patch_28">
    <path d="M 48.8975 463.66175 
L 1061.3775 463.66175 
" style="fill: none; stroke: #000000; stroke-width: 0.8; stroke-linejoin: miter; stroke-linecap: square"/>
   </g>
   <g id="text_43">
    <!-- n=5 -->
    <g transform="translate(126.217491 500.729135) scale(0.1 -0.1)">
     <use xlink:href="#DejaVuSans-6e"/>
     <use xlink:href="#DejaVuSans-3d" transform="translate(63.378906 0)"/>
     <use xlink:href="#DejaVuSans-35" transform="translate(147.167969 0)"/>
    </g>
   </g>
   <g id="text_44">
    <!-- n=11 -->
    <g transform="translate(227.631282 523.614355) scale(0.1 -0.1)">
     <use xlink:href="#DejaVuSans-6e"/>
     <use xlink:href="#DejaVuSans-3d" transform="translate(63.378906 0)"/>
     <use xlink:href="#DejaVuSans-31" transform="translate(147.167969 0)"/>
     <use xlink:href="#DejaVuSans-31" transform="translate(210.791016 0)"/>
    </g>
   </g>
   <g id="text_45">
    <!-- n=6 -->
    <g transform="translate(335.407574 524.410697) scale(0.1 -0.1)">
     <use xlink:href="#DejaVuSans-6e"/>
     <use xlink:href="#DejaVuSans-3d" transform="translate(63.378906 0)"/>
     <use xlink:href="#DejaVuSans-36" transform="translate(147.167969 0)"/>
    </g>
   </g>
   <g id="text_46">
    <!-- n=13 -->
    <g transform="translate(436.821365 489.565983) scale(0.1 -0.1)">
     <use xlink:href="#DejaVuSans-6e"/>
     <use xlink:href="#DejaVuSans-3d" transform="translate(63.378906 0)"/>
     <use xlink:href="#DejaVuSans-31" transform="translate(147.167969 0)"/>
     <use xlink:href="#DejaVuSans-33" transform="translate(210.791016 0)"/>
    </g>
   </g>
   <g id="text_47">
    <!-- n=6 -->
    <g transform="translate(544.597656 494.334077) scale(0.1 -0.1)">
     <use xlink:href="#DejaVuSans-6e"/>
     <use xlink:href="#DejaVuSans-3d" transform="translate(63.378906 0)"/>
     <use xlink:href="#DejaVuSans-36" transform="translate(147.167969 0)"/>
    </g>
   </g>
   <g id="text_48">
    <!-- n=8 -->
    <g transform="translate(649.192698 515.857824) scale(0.1 -0.1)">
     <use xlink:href="#DejaVuSans-6e"/>
     <use xlink:href="#DejaVuSans-3d" transform="translate(63.378906 0)"/>
     <use xlink:href="#DejaVuSans-38" transform="translate(147.167969 0)"/>
    </g>
   </g>
   <g id="text_49">
    <!-- n=13 -->
    <g transform="translate(750.606489 491.962481) scale(0.1 -0.1)">
     <use xlink:href="#DejaVuSans-6e"/>
     <use xlink:href="#DejaVuSans-3d" transform="translate(63.378906 0)"/>
     <use xlink:href="#DejaVuSans-31" transform="translate(147.167969 0)"/>
     <use xlink:href="#DejaVuSans-33" transform="translate(210.791016 0)"/>
    </g>
   </g>
   <g id="text_50">
    <!-- n=3 -->
    <g transform="translate(858.38278 480.876254) scale(0.1 -0.1)">
     <use xlink:href="#DejaVuSans-6e"/>
     <use xlink:href="#DejaVuSans-3d" transform="translate(63.378906 0)"/>
     <use xlink:href="#DejaVuSans-33" transform="translate(147.167969 0)"/>
    </g>
   </g>
   <g id="text_51">
    <!-- n=2 -->
    <g transform="translate(962.977822 512.285748) scale(0.1 -0.1)">
     <use xlink:href="#DejaVuSans-6e"/>
     <use xlink:href="#DejaVuSans-3d" transform="translate(63.378906 0)"/>
     <use xlink:href="#DejaVuSans-32" transform="translate(147.167969 0)"/>
    </g>
   </g>
   <g id="text_52">
    <!-- Average Similarity Score by MIPS Function Set Size(User-defined) -->
    <g transform="translate(320.774125 443.66175) scale(0.144 -0.144)">
     <use xlink:href="#DejaVuSans-41"/>
     <use xlink:href="#DejaVuSans-76" transform="translate(62.533203 0)"/>
     <use xlink:href="#DejaVuSans-65" transform="translate(121.712891 0)"/>
     <use xlink:href="#DejaVuSans-72" transform="translate(183.236328 0)"/>
     <use xlink:href="#DejaVuSans-61" transform="translate(224.349609 0)"/>
     <use xlink:href="#DejaVuSans-67" transform="translate(285.628906 0)"/>
     <use xlink:href="#DejaVuSans-65" transform="translate(349.105469 0)"/>
     <use xlink:href="#DejaVuSans-20" transform="translate(410.628906 0)"/>
     <use xlink:href="#DejaVuSans-53" transform="translate(442.416016 0)"/>
     <use xlink:href="#DejaVuSans-69" transform="translate(505.892578 0)"/>
     <use xlink:href="#DejaVuSans-6d" transform="translate(533.675781 0)"/>
     <use xlink:href="#DejaVuSans-69" transform="translate(631.087891 0)"/>
     <use xlink:href="#DejaVuSans-6c" transform="translate(658.871094 0)"/>
     <use xlink:href="#DejaVuSans-61" transform="translate(686.654297 0)"/>
     <use xlink:href="#DejaVuSans-72" transform="translate(747.933594 0)"/>
     <use xlink:href="#DejaVuSans-69" transform="translate(789.046875 0)"/>
     <use xlink:href="#DejaVuSans-74" transform="translate(816.830078 0)"/>
     <use xlink:href="#DejaVuSans-79" transform="translate(856.039062 0)"/>
     <use xlink:href="#DejaVuSans-20" transform="translate(915.21875 0)"/>
     <use xlink:href="#DejaVuSans-53" transform="translate(947.005859 0)"/>
     <use xlink:href="#DejaVuSans-63" transform="translate(1010.482422 0)"/>
     <use xlink:href="#DejaVuSans-6f" transform="translate(1065.462891 0)"/>
     <use xlink:href="#DejaVuSans-72" transform="translate(1126.644531 0)"/>
     <use xlink:href="#DejaVuSans-65" transform="translate(1165.507812 0)"/>
     <use xlink:href="#DejaVuSans-20" transform="translate(1227.03125 0)"/>
     <use xlink:href="#DejaVuSans-62" transform="translate(1258.818359 0)"/>
     <use xlink:href="#DejaVuSans-79" transform="translate(1322.294922 0)"/>
     <use xlink:href="#DejaVuSans-20" transform="translate(1381.474609 0)"/>
     <use xlink:href="#DejaVuSans-4d" transform="translate(1413.261719 0)"/>
     <use xlink:href="#DejaVuSans-49" transform="translate(1499.541016 0)"/>
     <use xlink:href="#DejaVuSans-50" transform="translate(1529.033203 0)"/>
     <use xlink:href="#DejaVuSans-53" transform="translate(1589.335938 0)"/>
     <use xlink:href="#DejaVuSans-20" transform="translate(1652.8125 0)"/>
     <use xlink:href="#DejaVuSans-46" transform="translate(1684.599609 0)"/>
     <use xlink:href="#DejaVuSans-75" transform="translate(1736.619141 0)"/>
     <use xlink:href="#DejaVuSans-6e" transform="translate(1799.998047 0)"/>
     <use xlink:href="#DejaVuSans-63" transform="translate(1863.376953 0)"/>
     <use xlink:href="#DejaVuSans-74" transform="translate(1918.357422 0)"/>
     <use xlink:href="#DejaVuSans-69" transform="translate(1957.566406 0)"/>
     <use xlink:href="#DejaVuSans-6f" transform="translate(1985.349609 0)"/>
     <use xlink:href="#DejaVuSans-6e" transform="translate(2046.53125 0)"/>
     <use xlink:href="#DejaVuSans-20" transform="translate(2109.910156 0)"/>
     <use xlink:href="#DejaVuSans-53" transform="translate(2141.697266 0)"/>
     <use xlink:href="#DejaVuSans-65" transform="translate(2205.173828 0)"/>
     <use xlink:href="#DejaVuSans-74" transform="translate(2266.697266 0)"/>
     <use xlink:href="#DejaVuSans-20" transform="translate(2305.90625 0)"/>
     <use xlink:href="#DejaVuSans-53" transform="translate(2337.693359 0)"/>
     <use xlink:href="#DejaVuSans-69" transform="translate(2401.169922 0)"/>
     <use xlink:href="#DejaVuSans-7a" transform="translate(2428.953125 0)"/>
     <use xlink:href="#DejaVuSans-65" transform="translate(2481.443359 0)"/>
     <use xlink:href="#DejaVuSans-28" transform="translate(2542.966797 0)"/>
     <use xlink:href="#DejaVuSans-55" transform="translate(2581.980469 0)"/>
     <use xlink:href="#DejaVuSans-73" transform="translate(2655.173828 0)"/>
     <use xlink:href="#DejaVuSans-65" transform="translate(2707.273438 0)"/>
     <use xlink:href="#DejaVuSans-72" transform="translate(2768.796875 0)"/>
     <use xlink:href="#DejaVuSans-2d" transform="translate(2803.535156 0)"/>
     <use xlink:href="#DejaVuSans-64" transform="translate(2839.619141 0)"/>
     <use xlink:href="#DejaVuSans-65" transform="translate(2903.095703 0)"/>
     <use xlink:href="#DejaVuSans-66" transform="translate(2964.619141 0)"/>
     <use xlink:href="#DejaVuSans-69" transform="translate(2999.824219 0)"/>
     <use xlink:href="#DejaVuSans-6e" transform="translate(3027.607422 0)"/>
     <use xlink:href="#DejaVuSans-65" transform="translate(3090.986328 0)"/>
     <use xlink:href="#DejaVuSans-64" transform="translate(3152.509766 0)"/>
     <use xlink:href="#DejaVuSans-29" transform="translate(3215.986328 0)"/>
    </g>
   </g>
  </g>
 </g>
 <defs>
  <clipPath id="p7e6d170719">
   <rect x="48.8975" y="38.14175" width="1012.48" height="326.225601"/>
  </clipPath>
  <clipPath id="p221b1b967d">
   <rect x="48.8975" y="463.66175" width="1012.48" height="326.225601"/>
  </clipPath>
 </defs>
</svg>
